<svg width="800" height="224" viewBox="0 0 800 224" fill="none" xmlns="http://www.w3.org/2000/svg">
<path fill-rule="evenodd" clip-rule="evenodd" d="M34 160H1V1H44.5L106 62.5V109L34 37V160ZM234.14 165V39H271.58L305.78 152.04H308.66V39H327.92V165H290.48L256.28 51.78H253.4V165H234.14ZM382.279 167.52C375.919 167.52 370.219 166.44 365.179 164.28C360.259 162.12 356.299 158.94 353.299 154.74C350.419 150.54 348.979 145.44 348.979 139.44C348.979 133.32 350.419 128.28 353.299 124.32C356.299 120.24 360.319 117.18 365.359 115.14C370.519 113.1 376.339 112.08 382.819 112.08H409.819V106.32C409.819 101.16 408.259 97.02 405.139 93.9C402.019 90.78 397.219 89.22 390.739 89.22C384.379 89.22 379.519 90.72 376.159 93.72C372.799 96.72 370.579 100.62 369.499 105.42L352.219 99.84C353.659 95.04 355.939 90.72 359.059 86.88C362.299 82.92 366.559 79.74 371.839 77.34C377.119 74.94 383.479 73.74 390.919 73.74C402.439 73.74 411.499 76.68 418.099 82.56C424.699 88.44 427.999 96.78 427.999 107.58V144.12C427.999 147.72 429.679 149.52 433.039 149.52H440.599V165H426.739C422.539 165 419.119 163.92 416.479 161.76C413.839 159.6 412.519 156.66 412.519 152.94V152.4H409.819C408.859 154.2 407.419 156.3 405.499 158.7C403.579 161.1 400.759 163.2 397.039 165C393.319 166.68 388.399 167.52 382.279 167.52ZM384.979 152.22C392.419 152.22 398.419 150.12 402.979 145.92C407.539 141.6 409.819 135.72 409.819 128.28V126.48H383.899C378.979 126.48 375.019 127.56 372.019 129.72C369.019 131.76 367.519 134.82 367.519 138.9C367.519 142.98 369.079 146.22 372.199 148.62C375.319 151.02 379.579 152.22 384.979 152.22ZM458.625 165V76.26H477.165V165H458.625ZM467.985 64.2C464.385 64.2 461.325 63.06 458.805 60.78C456.405 58.38 455.205 55.32 455.205 51.6C455.205 47.88 456.405 44.88 458.805 42.6C461.325 40.2 464.385 39 467.985 39C471.705 39 474.765 40.2 477.165 42.6C479.565 44.88 480.765 47.88 480.765 51.6C480.765 55.32 479.565 58.38 477.165 60.78C474.765 63.06 471.705 64.2 467.985 64.2ZM501.08 165V142.32L553.46 94.44V91.92H502.88V76.26H573.62V99.12L521.06 147V149.34H575.06V165H501.08ZM637.139 167.52C628.259 167.52 620.339 165.72 613.379 162.12C606.539 158.4 601.139 153.12 597.179 146.28C593.219 139.44 591.239 131.34 591.239 121.98V119.28C591.239 109.92 593.219 101.88 597.179 95.16C601.139 88.32 606.539 83.04 613.379 79.32C620.339 75.6 628.259 73.74 637.139 73.74C646.019 73.74 653.939 75.6 660.899 79.32C667.859 83.04 673.319 88.32 677.279 95.16C681.239 101.88 683.219 109.92 683.219 119.28V121.98C683.219 131.34 681.239 139.44 677.279 146.28C673.319 153.12 667.859 158.4 660.899 162.12C653.939 165.72 646.019 167.52 637.139 167.52ZM637.139 150.96C645.299 150.96 651.899 148.38 656.939 143.22C662.099 137.94 664.679 130.68 664.679 121.44V119.82C664.679 110.58 662.159 103.38 657.119 98.22C652.079 92.94 645.419 90.3 637.139 90.3C629.099 90.3 622.499 92.94 617.339 98.22C612.299 103.38 609.779 110.58 609.779 119.82V121.44C609.779 130.68 612.299 137.94 617.339 143.22C622.499 148.38 629.099 150.96 637.139 150.96ZM706.301 201V76.26H724.481V89.04H727.361C729.641 85.08 733.061 81.54 737.621 78.42C742.301 75.3 748.961 73.74 757.601 73.74C765.041 73.74 771.821 75.54 777.941 79.14C784.181 82.74 789.161 87.96 792.881 94.8C796.721 101.52 798.641 109.68 798.641 119.28V121.98C798.641 131.58 796.781 139.8 793.061 146.64C789.341 153.36 784.361 158.52 778.121 162.12C771.881 165.72 765.041 167.52 757.601 167.52C751.841 167.52 746.981 166.8 743.021 165.36C739.061 163.92 735.881 162.12 733.481 159.96C731.081 157.68 729.161 155.34 727.721 152.94H724.841V201H706.301ZM752.201 151.32C760.361 151.32 767.021 148.74 772.181 143.58C777.341 138.42 779.921 131.04 779.921 121.44V119.82C779.921 110.34 777.281 103.02 772.001 97.86C766.841 92.7 760.241 90.12 752.201 90.12C744.281 90.12 737.681 92.7 732.401 97.86C727.241 103.02 724.661 110.34 724.661 119.82V121.44C724.661 131.04 727.241 138.42 732.401 143.58C737.681 148.74 744.281 151.32 752.201 151.32ZM171 64H138V187L66 115V161.5L127.5 223H171V64Z" fill="#080707"/>
<path d="M1 160H0.5V160.5H1V160ZM34 160V160.5H34.5V160H34ZM1 1V0.5H0.5V1H1ZM44.5 1L44.8536 0.646447L44.7071 0.5H44.5V1ZM106 62.5H106.5V62.2929L106.354 62.1464L106 62.5ZM106 109L105.646 109.354L106.5 110.207V109H106ZM34 37L34.3536 36.6464L33.5 35.7929V37H34ZM234.14 39V38.5H233.64V39H234.14ZM234.14 165H233.64V165.5H234.14V165ZM271.58 39L272.059 38.8552L271.951 38.5H271.58V39ZM305.78 152.04L305.301 152.185L305.409 152.54H305.78V152.04ZM308.66 152.04V152.54H309.16V152.04H308.66ZM308.66 39V38.5H308.16V39H308.66ZM327.92 39H328.42V38.5H327.92V39ZM327.92 165V165.5H328.42V165H327.92ZM290.48 165L290.001 165.145L290.109 165.5H290.48V165ZM256.28 51.78L256.759 51.6354L256.651 51.28H256.28V51.78ZM253.4 51.78V51.28H252.9V51.78H253.4ZM253.4 165V165.5H253.9V165H253.4ZM365.179 164.28L364.978 164.738L364.982 164.74L365.179 164.28ZM353.299 154.74L352.886 155.023L352.892 155.031L353.299 154.74ZM353.299 124.32L352.896 124.024L352.894 124.026L353.299 124.32ZM365.359 115.14L365.175 114.675L365.171 114.677L365.359 115.14ZM409.819 112.08V112.58H410.319V112.08H409.819ZM376.159 93.72L375.826 93.347L375.826 93.347L376.159 93.72ZM369.499 105.42L369.345 105.896L369.866 106.064L369.986 105.53L369.499 105.42ZM352.219 99.84L351.74 99.6963L351.599 100.165L352.065 100.316L352.219 99.84ZM359.059 86.88L358.672 86.5634L358.671 86.5647L359.059 86.88ZM418.099 82.56L417.766 82.9333L417.766 82.9333L418.099 82.56ZM440.599 149.52H441.099V149.02H440.599V149.52ZM440.599 165V165.5H441.099V165H440.599ZM416.479 161.76L416.162 162.147L416.162 162.147L416.479 161.76ZM412.519 152.4H413.019V151.9H412.519V152.4ZM409.819 152.4V151.9H409.519L409.377 152.165L409.819 152.4ZM405.499 158.7L405.108 158.388L405.108 158.388L405.499 158.7ZM397.039 165L397.244 165.456L397.256 165.45L397.039 165ZM402.979 145.92L403.317 146.288L403.322 146.283L402.979 145.92ZM409.819 126.48H410.319V125.98H409.819V126.48ZM372.019 129.72L372.3 130.134L372.311 130.126L372.019 129.72ZM372.199 148.62L372.503 148.224L372.503 148.224L372.199 148.62ZM458.625 76.26V75.76H458.125V76.26H458.625ZM458.625 165H458.125V165.5H458.625V165ZM477.165 76.26H477.665V75.76H477.165V76.26ZM477.165 165V165.5H477.665V165H477.165ZM458.805 60.78L458.452 61.1335L458.461 61.1424L458.47 61.1507L458.805 60.78ZM458.805 42.6L459.15 42.9625L459.15 42.9621L458.805 42.6ZM477.165 42.6L476.812 42.9537L476.821 42.9625L477.165 42.6ZM477.165 60.78L477.51 61.1426L477.519 61.1335L477.165 60.78ZM501.08 142.32L500.743 141.951L500.58 142.1V142.32H501.08ZM501.08 165H500.58V165.5H501.08V165ZM553.46 94.44L553.797 94.809L553.96 94.6603V94.44H553.46ZM553.46 91.92H553.96V91.42H553.46V91.92ZM502.88 91.92H502.38V92.42H502.88V91.92ZM502.88 76.26V75.76H502.38V76.26H502.88ZM573.62 76.26H574.12V75.76H573.62V76.26ZM573.62 99.12L573.957 99.4896L574.12 99.3409V99.12H573.62ZM521.06 147L520.723 146.63L520.56 146.779V147H521.06ZM521.06 149.34H520.56V149.84H521.06V149.34ZM575.06 149.34H575.56V148.84H575.06V149.34ZM575.06 165V165.5H575.56V165H575.06ZM613.379 162.12L613.14 162.559L613.149 162.564L613.379 162.12ZM597.179 146.28L596.746 146.53L596.746 146.531L597.179 146.28ZM597.179 95.16L597.61 95.4138L597.612 95.4105L597.179 95.16ZM613.379 79.32L613.143 78.879L613.14 78.8807L613.379 79.32ZM660.899 79.32L660.663 79.761L660.663 79.761L660.899 79.32ZM677.279 95.16L676.846 95.4105L676.848 95.4138L677.279 95.16ZM660.899 162.12L661.129 162.564L661.135 162.561L660.899 162.12ZM656.939 143.22L656.581 142.871L656.581 142.871L656.939 143.22ZM657.119 98.22L656.757 98.5652L656.761 98.5693L657.119 98.22ZM617.339 98.22L616.981 97.8705L616.981 97.8706L617.339 98.22ZM617.339 143.22L616.977 143.565L616.985 143.574L617.339 143.22ZM706.301 76.26V75.76H705.801V76.26H706.301ZM706.301 201H705.801V201.5H706.301V201ZM724.481 76.26H724.981V75.76H724.481V76.26ZM724.481 89.04H723.981V89.54H724.481V89.04ZM727.361 89.04V89.54H727.65L727.794 89.2895L727.361 89.04ZM737.621 78.42L737.344 78.0039L737.339 78.0073L737.621 78.42ZM777.941 79.14L777.688 79.571L777.691 79.5731L777.941 79.14ZM792.881 94.8L792.442 95.0389L792.447 95.0481L792.881 94.8ZM793.061 146.64L793.499 146.882L793.5 146.879L793.061 146.64ZM778.121 162.12L777.871 161.687L777.871 161.687L778.121 162.12ZM733.481 159.96L733.137 160.323L733.147 160.332L733.481 159.96ZM727.721 152.94L728.15 152.683L728.004 152.44H727.721V152.94ZM724.841 152.94V152.44H724.341V152.94H724.841ZM724.841 201V201.5H725.341V201H724.841ZM772.181 143.58L771.828 143.226L771.828 143.226L772.181 143.58ZM772.001 97.86L771.648 98.2136L771.652 98.2176L772.001 97.86ZM732.401 97.86L732.052 97.5024L732.048 97.5064L732.401 97.86ZM732.401 143.58L732.048 143.934L732.052 143.938L732.401 143.58ZM138 64V63.5H137.5V64H138ZM171 64H171.5V63.5H171V64ZM138 187L137.646 187.354L138.5 188.207V187H138ZM66 115L66.3536 114.646L65.5 113.793V115H66ZM66 161.5H65.5V161.707L65.6464 161.854L66 161.5ZM127.5 223L127.146 223.354L127.293 223.5H127.5V223ZM171 223V223.5H171.5V223H171ZM1 160.5H34V159.5H1V160.5ZM0.5 1V160H1.5V1H0.5ZM44.5 0.5H1V1.5H44.5V0.5ZM106.354 62.1464L44.8536 0.646447L44.1464 1.35355L105.646 62.8536L106.354 62.1464ZM106.5 109V62.5H105.5V109H106.5ZM33.6464 37.3536L105.646 109.354L106.354 108.646L34.3536 36.6464L33.6464 37.3536ZM34.5 160V37H33.5V160H34.5ZM233.64 39V165H234.64V39H233.64ZM271.58 38.5H234.14V39.5H271.58V38.5ZM306.259 151.895L272.059 38.8552L271.101 39.1448L305.301 152.185L306.259 151.895ZM308.66 151.54H305.78V152.54H308.66V151.54ZM308.16 39V152.04H309.16V39H308.16ZM327.92 38.5H308.66V39.5H327.92V38.5ZM328.42 165V39H327.42V165H328.42ZM290.48 165.5H327.92V164.5H290.48V165.5ZM255.801 51.9246L290.001 165.145L290.959 164.855L256.759 51.6354L255.801 51.9246ZM253.4 52.28H256.28V51.28H253.4V52.28ZM253.9 165V51.78H252.9V165H253.9ZM234.14 165.5H253.4V164.5H234.14V165.5ZM364.982 164.74C370.093 166.93 375.862 168.02 382.279 168.02V167.02C375.976 167.02 370.344 165.95 365.376 163.82L364.982 164.74ZM352.892 155.031C355.946 159.307 359.979 162.543 364.978 164.738L365.38 163.822C360.538 161.697 356.651 158.573 353.705 154.449L352.892 155.031ZM348.479 139.44C348.479 145.523 349.94 150.726 352.886 155.023L353.711 154.457C350.898 150.354 349.479 145.357 349.479 139.44H348.479ZM352.894 124.026C349.938 128.091 348.479 133.241 348.479 139.44H349.479C349.479 133.399 350.899 128.469 353.703 124.614L352.894 124.026ZM365.171 114.677C360.052 116.749 355.955 119.864 352.896 124.024L353.701 124.616C356.643 120.616 360.585 117.611 365.546 115.603L365.171 114.677ZM382.819 111.58C376.286 111.58 370.402 112.608 365.175 114.675L365.542 115.605C370.635 113.592 376.391 112.58 382.819 112.58V111.58ZM409.819 111.58H382.819V112.58H409.819V111.58ZM409.319 106.32V112.08H410.319V106.32H409.319ZM404.785 94.2535C407.795 97.2639 409.319 101.268 409.319 106.32H410.319C410.319 101.052 408.722 96.7761 405.492 93.5464L404.785 94.2535ZM390.739 89.72C397.148 89.72 401.795 91.2635 404.785 94.2535L405.492 93.5464C402.242 90.2964 397.289 88.72 390.739 88.72V89.72ZM376.492 94.0929C379.728 91.203 384.451 89.72 390.739 89.72V88.72C384.306 88.72 379.309 90.2369 375.826 93.347L376.492 94.0929ZM369.986 105.53C371.046 100.822 373.217 97.017 376.492 94.0929L375.826 93.347C372.381 96.4229 370.111 100.418 369.011 105.31L369.986 105.53ZM352.065 100.316L369.345 105.896L369.652 104.944L352.372 99.3642L352.065 100.316ZM358.671 86.5647C355.509 90.4561 353.198 94.8345 351.74 99.6963L352.698 99.9837C354.119 95.2454 356.368 90.9839 359.447 87.1953L358.671 86.5647ZM371.632 76.8848C366.291 79.3123 361.966 82.5365 358.672 86.5634L359.446 87.1966C362.631 83.3035 366.826 80.1677 372.046 77.7952L371.632 76.8848ZM390.919 73.24C383.427 73.24 376.992 74.4482 371.632 76.8848L372.046 77.7952C377.245 75.4318 383.531 74.24 390.919 74.24V73.24ZM418.431 82.1866C411.715 76.2029 402.523 73.24 390.919 73.24V74.24C402.354 74.24 411.283 77.1571 417.766 82.9333L418.431 82.1866ZM428.499 107.58C428.499 96.6717 425.161 88.1822 418.431 82.1866L417.766 82.9333C424.236 88.6978 427.499 96.8883 427.499 107.58H428.499ZM428.499 144.12V107.58H427.499V144.12H428.499ZM433.039 149.02C431.445 149.02 430.339 148.595 429.624 147.829C428.903 147.056 428.499 145.851 428.499 144.12H427.499C427.499 145.989 427.934 147.484 428.893 148.511C429.858 149.545 431.272 150.02 433.039 150.02V149.02ZM440.599 149.02H433.039V150.02H440.599V149.02ZM441.099 165V149.52H440.099V165H441.099ZM426.739 165.5H440.599V164.5H426.739V165.5ZM416.162 162.147C418.911 164.396 422.451 165.5 426.739 165.5V164.5C422.626 164.5 419.327 163.444 416.795 161.373L416.162 162.147ZM412.019 152.94C412.019 156.794 413.394 159.883 416.162 162.147L416.795 161.373C414.283 159.317 413.019 156.525 413.019 152.94H412.019ZM412.019 152.4V152.94H413.019V152.4H412.019ZM409.819 152.9H412.519V151.9H409.819V152.9ZM405.889 159.012C407.82 156.599 409.28 154.472 410.26 152.635L409.377 152.165C408.437 153.928 407.018 156.001 405.108 158.388L405.889 159.012ZM397.256 165.45C401.022 163.628 403.909 161.487 405.889 159.012L405.108 158.388C403.248 160.713 400.496 162.772 396.821 164.55L397.256 165.45ZM382.279 168.02C388.437 168.02 393.436 167.176 397.244 165.456L396.833 164.544C393.202 166.184 388.36 167.02 382.279 167.02V168.02ZM402.64 145.552C398.19 149.651 392.32 151.72 384.979 151.72V152.72C392.518 152.72 398.647 150.589 403.317 146.288L402.64 145.552ZM409.319 128.28C409.319 135.61 407.077 141.349 402.635 145.557L403.322 146.283C408 141.851 410.319 135.83 410.319 128.28H409.319ZM409.319 126.48V128.28H410.319V126.48H409.319ZM383.899 126.98H409.819V125.98H383.899V126.98ZM372.311 130.126C375.202 128.044 379.049 126.98 383.899 126.98V125.98C378.908 125.98 374.836 127.076 371.726 129.314L372.311 130.126ZM368.019 138.9C368.019 134.961 369.455 132.068 372.3 130.133L371.737 129.307C368.582 131.452 367.019 134.679 367.019 138.9H368.019ZM372.503 148.224C369.512 145.922 368.019 142.831 368.019 138.9H367.019C367.019 143.129 368.646 146.518 371.894 149.016L372.503 148.224ZM384.979 151.72C379.648 151.72 375.509 150.535 372.503 148.224L371.894 149.016C375.129 151.505 379.509 152.72 384.979 152.72V151.72ZM458.125 76.26V165H459.125V76.26H458.125ZM477.165 75.76H458.625V76.76H477.165V75.76ZM477.665 165V76.26H476.665V165H477.665ZM458.625 165.5H477.165V164.5H458.625V165.5ZM458.47 61.1507C461.088 63.5192 464.269 64.7 467.985 64.7V63.7C464.501 63.7 461.563 62.6008 459.141 60.4092L458.47 61.1507ZM454.705 51.6C454.705 55.4386 455.949 58.6303 458.452 61.1335L459.159 60.4264C456.862 58.1296 455.705 55.2014 455.705 51.6H454.705ZM458.461 42.2375C455.949 44.624 454.705 47.7616 454.705 51.6H455.705C455.705 47.9984 456.862 45.136 459.15 42.9625L458.461 42.2375ZM467.985 38.5C464.262 38.5 461.077 39.746 458.46 42.2379L459.15 42.9621C461.574 40.6539 464.509 39.5 467.985 39.5V38.5ZM477.519 42.2464C475.016 39.7432 471.824 38.5 467.985 38.5V39.5C471.587 39.5 474.515 40.6568 476.812 42.9535L477.519 42.2464ZM481.265 51.6C481.265 47.7616 480.022 44.624 477.51 42.2375L476.821 42.9625C479.109 45.136 480.265 47.9984 480.265 51.6H481.265ZM477.519 61.1335C480.022 58.6303 481.265 55.4386 481.265 51.6H480.265C480.265 55.2014 479.109 58.1296 476.812 60.4264L477.519 61.1335ZM467.985 64.7C471.816 64.7 475.005 63.5219 477.51 61.1425L476.821 60.4175C474.526 62.598 471.594 63.7 467.985 63.7V64.7ZM500.58 142.32V165H501.58V142.32H500.58ZM553.123 94.0709L500.743 141.951L501.417 142.689L553.797 94.809L553.123 94.0709ZM552.96 91.92V94.44H553.96V91.92H552.96ZM502.88 92.42H553.46V91.42H502.88V92.42ZM502.38 76.26V91.92H503.38V76.26H502.38ZM573.62 75.76H502.88V76.76H573.62V75.76ZM574.12 99.12V76.26H573.12V99.12H574.12ZM521.397 147.37L573.957 99.4896L573.283 98.7504L520.723 146.63L521.397 147.37ZM521.56 149.34V147H520.56V149.34H521.56ZM575.06 148.84H521.06V149.84H575.06V148.84ZM575.56 165V149.34H574.56V165H575.56ZM501.08 165.5H575.06V164.5H501.08V165.5ZM613.149 162.564C620.189 166.205 628.19 168.02 637.139 168.02V167.02C628.328 167.02 620.489 165.235 613.609 161.676L613.149 162.564ZM596.746 146.531C600.752 153.449 606.218 158.795 613.14 162.559L613.618 161.681C606.86 158.005 601.526 152.791 597.612 146.029L596.746 146.531ZM590.739 121.98C590.739 131.412 592.735 139.601 596.746 146.53L597.612 146.029C593.703 139.279 591.739 131.268 591.739 121.98H590.739ZM590.739 119.28V121.98H591.739V119.28H590.739ZM596.748 94.9061C592.735 101.717 590.739 109.849 590.739 119.28H591.739C591.739 109.991 593.703 102.043 597.61 95.4138L596.748 94.9061ZM613.14 78.8807C606.218 82.6453 600.752 87.9912 596.746 94.9095L597.612 95.4105C601.526 88.6488 606.86 83.4346 613.618 79.7592L613.14 78.8807ZM637.139 73.24C628.187 73.24 620.184 75.1156 613.143 78.879L613.615 79.761C620.493 76.0843 628.331 74.24 637.139 74.24V73.24ZM661.135 78.879C654.093 75.1156 646.091 73.24 637.139 73.24V74.24C645.947 74.24 653.784 76.0843 660.663 79.761L661.135 78.879ZM677.712 94.9095C673.705 87.989 668.177 82.643 661.135 78.879L660.663 79.761C667.541 83.437 672.933 88.651 676.846 95.4105L677.712 94.9095ZM683.719 119.28C683.719 109.849 681.723 101.717 677.71 94.9061L676.848 95.4138C680.755 102.043 682.719 109.991 682.719 119.28H683.719ZM683.719 121.98V119.28H682.719V121.98H683.719ZM677.712 146.531C681.723 139.601 683.719 131.412 683.719 121.98H682.719C682.719 131.268 680.755 139.279 676.846 146.029L677.712 146.531ZM661.135 162.561C668.177 158.797 673.705 153.451 677.712 146.531L676.846 146.029C672.933 152.789 667.541 158.003 660.663 161.679L661.135 162.561ZM637.139 168.02C646.088 168.02 654.089 166.205 661.129 162.564L660.669 161.676C653.789 165.235 645.95 167.02 637.139 167.02V168.02ZM656.581 142.871C651.648 147.921 645.184 150.46 637.139 150.46V151.46C645.414 151.46 652.15 148.839 657.297 143.569L656.581 142.871ZM664.179 121.44C664.179 130.584 661.628 137.706 656.581 142.871L657.296 143.569C662.569 138.174 665.179 130.776 665.179 121.44H664.179ZM664.179 119.82V121.44H665.179V119.82H664.179ZM656.761 98.5693C661.686 103.612 664.179 110.672 664.179 119.82H665.179C665.179 110.488 662.632 103.148 657.477 97.8706L656.761 98.5693ZM637.139 90.8C645.302 90.8 651.825 93.3977 656.757 98.5652L657.481 97.8747C652.333 92.4822 645.535 89.8 637.139 89.8V90.8ZM617.697 98.5694C622.754 93.3948 629.22 90.8 637.139 90.8V89.8C628.978 89.8 622.244 92.4852 616.981 97.8705L617.697 98.5694ZM610.279 119.82C610.279 110.672 612.772 103.612 617.697 98.5693L616.981 97.8706C611.826 103.148 609.279 110.488 609.279 119.82H610.279ZM610.279 121.44V119.82H609.279V121.44H610.279ZM617.701 142.875C612.771 137.711 610.279 130.587 610.279 121.44H609.279C609.279 130.773 611.827 138.169 616.977 143.565L617.701 142.875ZM637.139 150.46C629.217 150.46 622.749 147.923 617.692 142.866L616.985 143.574C622.249 148.837 628.981 151.46 637.139 151.46V150.46ZM705.801 76.26V201H706.801V76.26H705.801ZM724.481 75.76H706.301V76.76H724.481V75.76ZM724.981 89.04V76.26H723.981V89.04H724.981ZM727.361 88.54H724.481V89.54H727.361V88.54ZM737.339 78.0073C732.73 81.161 729.252 84.7533 726.928 88.7905L727.794 89.2895C730.03 85.4067 733.393 81.919 737.903 78.8326L737.339 78.0073ZM757.601 73.24C748.912 73.24 742.139 74.8071 737.344 78.004L737.898 78.836C742.463 75.7928 749.011 74.24 757.601 74.24V73.24ZM778.195 78.709C771.994 75.0616 765.126 73.24 757.601 73.24V74.24C764.956 74.24 771.648 76.0183 777.688 79.5709L778.195 78.709ZM793.32 94.5611C789.56 87.6469 784.517 82.3566 778.191 78.7069L777.691 79.5731C783.845 83.1233 788.762 88.273 792.442 95.0389L793.32 94.5611ZM799.141 119.28C799.141 109.614 797.208 101.364 793.315 94.5519L792.447 95.0481C796.235 101.676 798.141 109.746 798.141 119.28H799.141ZM799.141 121.98V119.28H798.141V121.98H799.141ZM793.5 146.879C797.269 139.95 799.141 131.644 799.141 121.98H798.141C798.141 131.516 796.294 139.65 792.622 146.401L793.5 146.879ZM778.371 162.553C784.695 158.905 789.738 153.676 793.499 146.882L792.624 146.398C788.945 153.044 784.027 158.135 777.871 161.687L778.371 162.553ZM757.601 168.02C765.126 168.02 772.052 166.198 778.371 162.553L777.871 161.687C771.71 165.242 764.956 167.02 757.601 167.02V168.02ZM742.85 165.83C746.881 167.296 751.803 168.02 757.601 168.02V167.02C751.879 167.02 747.081 166.304 743.192 164.89L742.85 165.83ZM733.147 160.332C735.606 162.545 738.847 164.374 742.85 165.83L743.192 164.89C739.275 163.466 736.156 161.694 733.816 159.588L733.147 160.332ZM727.292 153.197C728.759 155.642 730.71 158.017 733.137 160.322L733.826 159.597C731.452 157.343 729.563 155.038 728.15 152.683L727.292 153.197ZM724.841 153.44H727.721V152.44H724.841V153.44ZM725.341 201V152.94H724.341V201H725.341ZM706.301 201.5H724.841V200.5H706.301V201.5ZM771.828 143.226C766.773 148.281 760.246 150.82 752.201 150.82V151.82C760.477 151.82 767.269 149.199 772.535 143.934L771.828 143.226ZM779.421 121.44C779.421 130.951 776.867 138.187 771.828 143.226L772.535 143.934C777.815 138.653 780.421 131.129 780.421 121.44H779.421ZM779.421 119.82V121.44H780.421V119.82H779.421ZM771.652 98.2176C776.81 103.259 779.421 110.434 779.421 119.82H780.421C780.421 110.246 777.752 102.781 772.351 97.5024L771.652 98.2176ZM752.201 90.62C760.123 90.62 766.591 93.1573 771.648 98.2135L772.355 97.5064C767.091 92.2427 760.359 89.62 752.201 89.62V90.62ZM732.751 98.2176C737.93 93.1559 744.401 90.62 752.201 90.62V89.62C744.161 89.62 737.432 92.244 732.052 97.5024L732.751 98.2176ZM725.161 119.82C725.161 110.431 727.714 103.254 732.755 98.2135L732.048 97.5064C726.768 102.786 724.161 110.249 724.161 119.82H725.161ZM725.161 121.44V119.82H724.161V121.44H725.161ZM732.755 143.226C727.715 138.187 725.161 130.951 725.161 121.44H724.161C724.161 131.129 726.767 138.653 732.048 143.934L732.755 143.226ZM752.201 150.82C744.401 150.82 737.93 148.284 732.751 143.222L732.052 143.938C737.432 149.196 744.161 151.82 752.201 151.82V150.82ZM138 64.5H171V63.5H138V64.5ZM138.5 187V64H137.5V187H138.5ZM65.6464 115.354L137.646 187.354L138.354 186.646L66.3536 114.646L65.6464 115.354ZM66.5 161.5V115H65.5V161.5H66.5ZM127.854 222.646L66.3536 161.146L65.6464 161.854L127.146 223.354L127.854 222.646ZM171 222.5H127.5V223.5H171V222.5ZM170.5 64V223H171.5V64H170.5Z" fill="black"/>
</svg>
