<svg width="32" height="32" viewBox="0 0 32 32" fill="none" xmlns="http://www.w3.org/2000/svg">
<path d="M31.5214 19.8692C29.3836 28.4453 20.6948 33.6584 12.131 31.5207C3.55478 29.3829 -1.65848 20.6943 0.479333 12.1308C2.61715 3.5547 11.2934 -1.65844 19.8697 0.479322C28.4334 2.60459 33.6592 11.2932 31.5214 19.8692Z" fill="url(#paint0_linear_2122_25102)"/>
<path d="M23.6183 14.0062C23.9308 11.8812 22.3183 10.7312 20.0933 9.96874L20.8183 7.08124L19.0683 6.64374L18.3683 9.45624C17.9058 9.34374 17.4308 9.23124 16.9558 9.13124L17.6558 6.30624L15.9058 5.86874L15.1933 8.74374C14.8058 8.65624 14.4308 8.56874 14.0683 8.48124V8.46874L11.6433 7.86874L11.1808 9.74374C11.1808 9.74374 12.4808 10.0437 12.4558 10.0562C13.1683 10.2312 13.2933 10.7062 13.2683 11.0812L12.4433 14.3687C12.4933 14.3812 12.5558 14.3937 12.6308 14.4312C12.5683 14.4187 12.5058 14.4062 12.4433 14.3812L11.2933 18.9812C11.2058 19.1937 10.9808 19.5187 10.4933 19.3937C10.5058 19.4187 9.21826 19.0812 9.21826 19.0812L8.34326 21.0937L10.6308 21.6687C11.0558 21.7812 11.4683 21.8812 11.8808 21.9937L11.1558 24.9062L12.9058 25.3437L13.6308 22.4562C14.1058 22.5812 14.5808 22.7062 15.0308 22.8187L14.3183 25.6937L16.0683 26.1312L16.7933 23.2187C19.7933 23.7812 22.0433 23.5562 22.9808 20.8437C23.7433 18.6687 22.9433 17.4062 21.3683 16.5812C22.5308 16.3187 23.3933 15.5562 23.6183 14.0062ZM19.6058 19.6312C19.0683 21.8062 15.3933 20.6312 14.2058 20.3312L15.1683 16.4687C16.3558 16.7687 20.1808 17.3562 19.6058 19.6312ZM20.1558 13.9687C19.6558 15.9562 16.6058 14.9437 15.6183 14.6937L16.4933 11.1937C17.4808 11.4437 20.6683 11.9062 20.1558 13.9687Z" fill="white"/>
<defs>
<linearGradient id="paint0_linear_2122_25102" x1="15.9915" y1="-0.00753679" x2="15.9915" y2="31.9968" gradientUnits="userSpaceOnUse">
<stop stop-color="#F9AA4B"/>
<stop offset="1" stop-color="#F7931A"/>
</linearGradient>
</defs>
</svg>
