<svg width="32" height="32" viewBox="0 0 32 32" fill="none" xmlns="http://www.w3.org/2000/svg">
<path d="M32 16C32 7.16344 24.8366 0 16 0C7.16344 0 0 7.16344 0 16C0 24.8366 7.16344 32 16 32C24.8366 32 32 24.8366 32 16Z" fill="white"/>
<path fill-rule="evenodd" clip-rule="evenodd" d="M22.658 12.0171C21.1781 9.52873 18.4742 8.00752 15.3832 8.00752C10.7039 8.00752 7.05535 11.6081 7.05535 16.3179C7.05535 21.0276 10.7039 24.9905 15.3832 24.9905C18.4742 24.9905 21.1781 23.1795 22.658 20.6911H26.8993C25.1465 25.335 20.612 28.6357 15.3832 28.6357C8.62417 28.6357 3 23.1208 3 16.3179C3 9.51488 8.62417 4 15.3832 4C20.612 4 25.1465 7.37322 26.8993 12.0171H22.658V12.0171ZM29 14.8687L24.727 17.912H19.3661C18.7417 19.5228 17.1788 20.6654 15.3482 20.6654C12.9683 20.6654 11.039 18.7352 11.039 16.3541C11.039 13.9731 12.9683 12.0429 15.3482 12.0429C17.2064 12.0429 18.7897 13.2195 19.3947 14.8687H29Z" fill="#FF0000"/>
</svg>
