<svg width="32" height="32" viewBox="0 0 32 32" fill="none" xmlns="http://www.w3.org/2000/svg">
<circle cx="16" cy="16" r="16" fill="#5865F2"/>
<path d="M23.0854 9.42475C21.7087 8.82071 20.2323 8.37568 18.6888 8.12079C18.6606 8.11587 18.6326 8.12816 18.6181 8.15275C18.4282 8.47566 18.2179 8.89693 18.0706 9.22804C16.4104 8.99037 14.7587 8.99037 13.1325 9.22804C12.9852 8.88957 12.7673 8.47566 12.5766 8.15275C12.5621 8.12898 12.534 8.11669 12.5059 8.12079C10.9632 8.37486 9.48685 8.8199 8.10929 9.42475C8.09736 9.42967 8.08714 9.43787 8.08036 9.44852C5.2801 13.4489 4.51299 17.351 4.88931 21.2047C4.89101 21.2236 4.90208 21.2416 4.91741 21.2531C6.76494 22.5505 8.55459 23.3381 10.311 23.8602C10.3391 23.8684 10.3689 23.8585 10.3868 23.8364C10.8023 23.2938 11.1726 22.7218 11.4902 22.1202C11.5089 22.0849 11.491 22.0431 11.4527 22.0292C10.8653 21.8161 10.3059 21.5563 9.76781 21.2613C9.72524 21.2375 9.72184 21.1793 9.76099 21.1514C9.87422 21.0703 9.98749 20.9859 10.0956 20.9006C10.1152 20.8851 10.1424 20.8818 10.1654 20.8916C13.7004 22.4349 17.5274 22.4349 21.0207 20.8916C21.0437 20.881 21.071 20.8842 21.0914 20.8998C21.1995 20.985 21.3128 21.0703 21.4268 21.1514C21.466 21.1793 21.4634 21.2375 21.4209 21.2613C20.8828 21.562 20.3234 21.8161 19.7351 22.0284C19.6968 22.0423 19.6798 22.0849 19.6985 22.1202C20.0229 22.7209 20.3932 23.293 20.8011 23.8356C20.8181 23.8585 20.8487 23.8684 20.8768 23.8602C22.6418 23.3381 24.4314 22.5505 26.2789 21.2531C26.2951 21.2416 26.3053 21.2244 26.307 21.2055C26.7574 16.7502 25.5527 12.8801 23.1134 9.44934C23.1075 9.43787 23.0973 9.42967 23.0854 9.42475ZM12.0181 18.8582C10.9538 18.8582 10.0769 17.9239 10.0769 16.7765C10.0769 15.629 10.9368 14.6947 12.0181 14.6947C13.1078 14.6947 13.9763 15.6372 13.9592 16.7765C13.9592 17.9239 13.0993 18.8582 12.0181 18.8582ZM19.1953 18.8582C18.1311 18.8582 17.2542 17.9239 17.2542 16.7765C17.2542 15.629 18.114 14.6947 19.1953 14.6947C20.2851 14.6947 21.1535 15.6372 21.1365 16.7765C21.1365 17.9239 20.2851 18.8582 19.1953 18.8582Z" fill="white"/>
</svg>
