<svg width="32" height="32" viewBox="0 0 32 32" fill="none" xmlns="http://www.w3.org/2000/svg">
<path d="M0 16C0 24.8366 7.16344 32 16 32C24.8366 32 32 24.8366 32 16C32 7.16344 24.8366 0 16 0C7.16344 0 0 7.16344 0 16Z" fill="white"/>
<g clip-path="url(#clip0_3760_32990)">
<path d="M7.36364 23H10.5455V15.2727L6 11.8636V21.6364C6 22.3909 6.61136 23 7.36364 23Z" fill="#4285F4"/>
<path d="M21.4546 23H24.6364C25.391 23 26 22.3886 26 21.6364V11.8636L21.4546 15.2727" fill="#34A853"/>
<path d="M21.4546 9.36363V15.2727L26 11.8636V10.0454C26 8.35908 24.075 7.39772 22.7273 8.40908" fill="#FBBC04"/>
<path d="M10.5454 15.2727V9.36365L16 13.4546L21.4545 9.36365V15.2727L16 19.3636" fill="#EA4335"/>
<path d="M6 10.0454V11.8636L10.5455 15.2727V9.36363L9.27273 8.40908C7.92273 7.39772 6 8.35908 6 10.0454Z" fill="#C5221F"/>
</g>
<defs>
<clipPath id="clip0_3760_32990">
<rect width="20" height="15" fill="white" transform="translate(6 8)"/>
</clipPath>
</defs>
</svg>
