<svg width="32" height="32" viewBox="0 0 32 32" fill="none" xmlns="http://www.w3.org/2000/svg">
<g clip-path="url(#clip0_3760_33008)">
<path d="M24.786 0H7.214C3.22982 0 0 3.22982 0 7.214V24.786C0 28.7702 3.22982 32 7.214 32H24.786C28.7702 32 32 28.7702 32 24.786V7.214C32 3.22982 28.7702 0 24.786 0Z" fill="#06C755"/>
<path d="M26.6659 14.492C26.6659 9.71801 21.8799 5.83401 15.9969 5.83401C10.1139 5.83401 5.32788 9.71801 5.32788 14.492C5.32788 18.772 9.12788 22.357 14.2499 23.034C14.5979 23.109 15.0709 23.263 15.1899 23.56C15.2979 23.83 15.2609 24.253 15.2249 24.525C15.2249 24.525 15.0999 25.278 15.0729 25.438C15.0259 25.708 14.8579 26.493 15.9969 26.014C17.1359 25.535 22.1409 22.396 24.3789 19.819C25.9249 18.124 26.6659 16.4 26.6659 14.492Z" fill="white"/>
<path d="M23.116 17.249H20.116C20.063 17.249 20.0121 17.2279 19.9746 17.1904C19.9371 17.1529 19.916 17.102 19.916 17.049V12.394C19.916 12.341 19.9371 12.2901 19.9746 12.2526C20.0121 12.2151 20.063 12.194 20.116 12.194H23.116C23.1691 12.194 23.2199 12.2151 23.2574 12.2526C23.2949 12.2901 23.316 12.341 23.316 12.394V13.151C23.316 13.204 23.2949 13.2549 23.2574 13.2924C23.2199 13.3299 23.1691 13.351 23.116 13.351H21.079V14.136H23.116C23.1691 14.136 23.2199 14.1571 23.2574 14.1946C23.2949 14.2321 23.316 14.283 23.316 14.336V15.1C23.316 15.153 23.2949 15.2039 23.2574 15.2414C23.2199 15.2789 23.1691 15.3 23.116 15.3H21.079V16.086H23.116C23.1691 16.086 23.2199 16.1071 23.2574 16.1446C23.2949 16.1821 23.316 16.233 23.316 16.286V17.042C23.317 17.0688 23.3125 17.0956 23.3028 17.1207C23.2932 17.1458 23.2786 17.1686 23.26 17.188C23.2413 17.2073 23.2189 17.2226 23.1942 17.2331C23.1695 17.2436 23.1429 17.249 23.116 17.249Z" fill="#06C755"/>
<path d="M12.029 17.249C12.0821 17.249 12.1329 17.2279 12.1705 17.1904C12.208 17.1529 12.229 17.102 12.229 17.049V16.293C12.229 16.2399 12.208 16.1891 12.1705 16.1516C12.1329 16.1141 12.0821 16.093 12.029 16.093H9.99203V12.393C9.99203 12.3399 9.97096 12.2891 9.93345 12.2516C9.89595 12.2141 9.84507 12.193 9.79203 12.193H9.03203C8.97899 12.193 8.92812 12.2141 8.89061 12.2516C8.8531 12.2891 8.83203 12.3399 8.83203 12.393V17.046C8.83203 17.099 8.8531 17.1499 8.89061 17.1874C8.92812 17.2249 8.97899 17.246 9.03203 17.246H12.032L12.029 17.249Z" fill="#06C755"/>
<path d="M13.833 12.185H13.077C12.9644 12.185 12.873 12.2763 12.873 12.389V17.045C12.873 17.1577 12.9644 17.249 13.077 17.249H13.833C13.9457 17.249 14.037 17.1577 14.037 17.045V12.389C14.037 12.2763 13.9457 12.185 13.833 12.185Z" fill="#06C755"/>
<path d="M18.9841 12.185H18.2281C18.1751 12.185 18.1242 12.2061 18.0867 12.2436C18.0492 12.2811 18.0281 12.332 18.0281 12.385V15.151L15.8981 12.274C15.8932 12.2664 15.8875 12.2593 15.8811 12.253L15.8691 12.241L15.8581 12.232H15.8521L15.8411 12.224H15.8351L15.8241 12.218H15.8171H15.8061H15.7991H15.7871H15.7791H15.7671H15.7591H15.7481H14.9771C14.9241 12.218 14.8732 12.2391 14.8357 12.2766C14.7982 12.3141 14.7771 12.365 14.7771 12.418V17.074C14.7771 17.127 14.7982 17.1779 14.8357 17.2154C14.8732 17.2529 14.9241 17.274 14.9771 17.274H15.7341C15.7871 17.274 15.838 17.2529 15.8755 17.2154C15.913 17.1779 15.9341 17.127 15.9341 17.074V14.281L18.0671 17.161C18.0811 17.1814 18.0987 17.199 18.1191 17.213L18.1311 17.221H18.1371L18.1471 17.226H18.1571H18.1641H18.1781C18.1958 17.2304 18.2139 17.2327 18.2321 17.233H18.9841C19.0371 17.233 19.088 17.2119 19.1255 17.1744C19.163 17.1369 19.1841 17.086 19.1841 17.033V12.389C19.1846 12.3624 19.1799 12.336 19.17 12.3112C19.1602 12.2865 19.1456 12.264 19.127 12.245C19.1083 12.226 19.0861 12.2109 19.0616 12.2006C19.037 12.1903 19.0107 12.185 18.9841 12.185Z" fill="#06C755"/>
</g>
<defs>
<clipPath id="clip0_3760_33008">
<rect width="32" height="32" rx="16" fill="white"/>
</clipPath>
</defs>
</svg>
