<svg width="32" height="32" viewBox="0 0 32 32" fill="none" xmlns="http://www.w3.org/2000/svg">
<path d="M32 16C32 7.16344 24.8366 0 16 0C7.16344 0 0 7.16344 0 16C0 24.8366 7.16344 32 16 32C24.8366 32 32 24.8366 32 16Z" fill="white"/>
<path d="M10.8 9C9.90701 9 9.02277 9.17589 8.19775 9.51762C7.37274 9.85935 6.62311 10.3602 5.99167 10.9917C5.36024 11.6231 4.85935 12.3727 4.51762 13.1978C4.17589 14.0228 4 14.907 4 15.8C4 16.693 4.17589 17.5772 4.51762 18.4022C4.85935 19.2273 5.36024 19.9769 5.99167 20.6083C6.62311 21.2398 7.37274 21.7406 8.19775 22.0824C9.02277 22.4241 9.90701 22.6 10.8 22.6C11.693 22.6 12.5772 22.4241 13.4022 22.0824C14.2273 21.7406 14.9769 21.2398 15.6083 20.6083C16.2398 19.9769 16.7406 19.2273 17.0824 18.4022C17.4241 17.5772 17.6 16.693 17.6 15.8C17.6 14.907 17.4241 14.0228 17.0824 13.1978C16.7406 12.3727 16.2398 11.6231 15.6083 10.9917C14.9769 10.3602 14.2273 9.85935 13.4022 9.51762C12.5772 9.17589 11.693 9 10.8 9ZM21.6 9.8C21.1798 9.8 20.7637 9.95519 20.3754 10.2567C19.9872 10.5583 19.6344 11.0002 19.3373 11.5574C19.0401 12.1145 18.8044 12.7759 18.6436 13.5039C18.4828 14.2319 18.4 15.0121 18.4 15.8C18.4 16.5879 18.4828 17.3681 18.6436 18.0961C18.8044 18.8241 19.0401 19.4855 19.3373 20.0426C19.6344 20.5998 19.9872 21.0417 20.3754 21.3433C20.7637 21.6448 21.1798 21.8 21.6 21.8C22.0202 21.8 22.4363 21.6448 22.8246 21.3433C23.2128 21.0417 23.5656 20.5998 23.8627 20.0426C24.1599 19.4855 24.3956 18.8241 24.5564 18.0961C24.7172 17.3681 24.8 16.5879 24.8 15.8C24.8 15.0121 24.7172 14.2319 24.5564 13.5039C24.3956 12.7759 24.1599 12.1145 23.8627 11.5574C23.5656 11.0002 23.2128 10.5583 22.8246 10.2567C22.4363 9.95519 22.0202 9.8 21.6 9.8ZM26.8 10.6C26.4817 10.6 26.1765 11.1479 25.9515 12.123C25.7264 13.0982 25.6 14.4209 25.6 15.8C25.6 17.1791 25.7264 18.5018 25.9515 19.477C26.1765 20.4521 26.4817 21 26.8 21C27.1183 21 27.4235 20.4521 27.6485 19.477C27.8736 18.5018 28 17.1791 28 15.8C28 14.4209 27.8736 13.0982 27.6485 12.123C27.4235 11.1479 27.1183 10.6 26.8 10.6Z" fill="black"/>
</svg>
