<svg width="32" height="32" viewBox="0 0 32 32" fill="none" xmlns="http://www.w3.org/2000/svg">
<circle cx="16" cy="16" r="16" fill="#BD081C"/>
<path fill-rule="evenodd" clip-rule="evenodd" d="M16.6819 6.39999C11.4419 6.39999 8.80005 10.1567 8.80005 13.2894C8.80005 15.1861 9.51827 16.874 11.0585 17.5022C11.3111 17.6054 11.5373 17.5058 11.6105 17.2262C11.6615 17.0324 11.7822 16.5439 11.8356 16.3405C11.9094 16.0639 11.8806 15.9673 11.6765 15.7261C11.2325 15.2023 10.9487 14.5243 10.9487 13.5636C10.9487 10.7759 13.0344 8.28107 16.3789 8.28107C19.3406 8.28107 20.9679 10.0913 20.9679 12.5076C20.9679 15.6877 19.5602 18.3716 17.4715 18.3716C16.3177 18.3716 15.4543 17.417 15.7309 16.2469C16.0621 14.8501 16.7047 13.3416 16.7047 12.3336C16.7047 11.4312 16.2199 10.6781 15.2173 10.6781C14.0376 10.6781 13.0902 11.898 13.0902 13.5324C13.0902 14.5735 13.4418 15.2779 13.4418 15.2779C13.4418 15.2779 12.2346 20.3919 12.0234 21.2877C11.6021 23.0716 11.9604 25.258 11.9904 25.4789C12.0084 25.6097 12.1764 25.6409 12.2526 25.5413C12.3612 25.3997 13.7658 23.665 14.2434 21.9321C14.3784 21.4419 15.0193 18.9008 15.0193 18.9008C15.4021 19.6317 16.5223 20.2755 17.7134 20.2755C21.2589 20.2755 23.6638 17.0432 23.6638 12.7164C23.6638 9.4463 20.8935 6.39999 16.6819 6.39999Z" fill="white"/>
</svg>
