<svg width="32" height="32" viewBox="0 0 32 32" fill="none" xmlns="http://www.w3.org/2000/svg">
<path d="M32 16C32 7.16344 24.8366 0 16 0C7.16344 0 0 7.16344 0 16C0 24.8366 7.16344 32 16 32C24.8366 32 32 24.8366 32 16Z" fill="white"/>
<path d="M6.10375 12C4.53543 12 3.00052 13.2965 3 15.1992C3 17.0837 4.53543 18.3791 6.10375 18.3791C6.37571 18.3791 6.64968 18.3402 6.90812 18.2684C7.21596 18.8144 7.62575 19.28 8.40211 19.28C9.68339 19.28 9.77688 18.0143 9.74984 17.72H9.34055C9.31663 17.941 9.06188 18.24 8.70984 18.24C8.38744 18.24 8.26875 18.0339 8.04359 17.6845C8.74039 17.126 9.21867 16.2616 9.21867 15.1982C9.21867 13.2867 7.69859 12 6.10375 12ZM6.10375 12.6348C7.29871 12.6348 7.81102 13.504 7.81102 15.1982C7.81102 15.8768 7.72536 16.4242 7.54492 16.8293C7.24124 16.3545 6.85857 15.9833 6.11289 15.9833C5.63397 15.9833 5.26111 16.1461 5.03023 16.3509L5.21914 16.743C5.31638 16.6967 5.42332 16.679 5.52992 16.679C6.08736 16.679 6.37328 17.1807 6.61664 17.6773C6.46064 17.7241 6.29043 17.7454 6.10375 17.7454C4.92595 17.7454 4.4168 16.8835 4.4168 15.1982C4.4168 13.504 4.92595 12.6348 6.10375 12.6348ZM23.3237 13.4737C22.8208 13.4737 22.2858 13.8281 22.0856 14.5005H22.0491L21.9577 13.5651H20.162V14.1369H20.417C20.7076 14.1369 20.8344 14.2459 20.8344 14.4913V16.9806C20.8344 17.3893 20.7891 17.526 20.3164 17.526H20.1255V18.0988H22.9398V17.526H22.6757C22.2124 17.526 22.112 17.3893 22.112 16.9806V15.2998C22.112 14.8848 22.3427 14.603 22.6391 14.603C22.9725 14.603 23.0517 14.8763 23.4547 14.8763C23.9029 14.8763 24.063 14.5215 24.063 14.1887C24.063 13.7103 23.7386 13.4737 23.3237 13.4737ZM17.4828 13.497C16.1953 13.497 15.087 14.4324 15.087 15.8411C15.087 17.2763 16.2229 18.24 17.4828 18.24C18.8244 18.24 19.9 17.2763 19.9 15.8411C19.9 14.4506 18.8244 13.497 17.4828 13.497ZM9.67062 13.56V14.1389H9.97023C10.2521 14.1389 10.343 14.2494 10.343 14.4974V16.677C10.343 17.8449 10.9612 18.24 11.7334 18.24C12.4208 18.24 12.9019 17.9549 13.2446 17.5321H13.2812V18.1476L15.0504 17.8622V17.265H14.9864C14.6229 17.265 14.505 17.1182 14.505 16.7958V13.56H12.5266V14.1389H12.8445C13.1258 14.1389 13.2172 14.2494 13.2172 14.4974V16.8882C13.0289 17.2439 12.681 17.4001 12.3326 17.4001C11.9083 17.4001 11.6298 17.1706 11.6298 16.6495V13.56H9.67062ZM26.2974 13.5661C25.0468 13.5661 24.3799 14.0172 24.3799 14.5746C24.3799 14.8502 24.538 15.0956 24.9436 15.0956C25.7886 15.0956 25.3705 14.1084 26.2883 14.1084C26.6154 14.1084 26.9119 14.2269 26.9119 14.9809V15.0865C26.3061 16.0672 24.2438 15.6739 24.2438 17.1543C24.2438 17.8901 24.7525 18.3091 25.5398 18.3091C26.2175 18.3091 26.7031 18.0034 26.9393 17.5494H26.9759C27.0216 17.9643 27.3632 18.2177 27.9082 18.2177C28.5353 18.2177 28.8656 17.8814 28.9898 17.6905L28.8375 17.3219C28.7678 17.3708 28.6776 17.4011 28.5684 17.4011C28.3141 17.4011 28.2078 17.2429 28.2078 16.9522V15.0713C28.2078 13.8929 27.4815 13.5661 26.2974 13.5661ZM17.4828 14.0698C18.1791 14.0698 18.4713 14.6472 18.4578 15.8411C18.4443 17.061 18.1796 17.6672 17.4828 17.6672C16.8677 17.6672 16.4926 17.0621 16.4926 15.8411C16.4926 14.6477 16.8744 14.0698 17.4828 14.0698ZM26.9119 15.7375V16.4657C26.9119 17.0107 26.676 17.5524 26.1034 17.5524C25.7462 17.5524 25.5215 17.3368 25.5215 16.9583C25.5215 16.1861 26.4943 16.1707 26.9119 15.7375Z" fill="black"/>
</svg>
