<svg width="32" height="32" viewBox="0 0 32 32" fill="none" xmlns="http://www.w3.org/2000/svg">
<path d="M32 16C32 7.16344 24.8366 0 16 0C7.16344 0 0 7.16344 0 16C0 24.8366 7.16344 32 16 32C24.8366 32 32 24.8366 32 16Z" fill="#F8732C"/>
<path d="M16.0001 13.1905C15.7373 13.1905 15.5239 12.9771 15.5239 12.7143C15.5239 11.3738 15.6954 7 17.9049 7C18.4634 7 18.8749 7.3219 19.2725 7.63381C19.7711 8.02429 20.2868 8.42857 21.2382 8.42857H23.143C23.4058 8.42857 23.6192 8.6419 23.6192 8.90476C23.6192 9.16762 23.4058 9.38095 23.143 9.38095H21.2382C19.9582 9.38095 19.2225 8.80429 18.6849 8.38333C18.3439 8.11619 18.1239 7.95238 17.9049 7.95238C17.0773 7.95238 16.4763 9.95524 16.4763 12.7143C16.4763 12.9771 16.263 13.1905 16.0001 13.1905Z" fill="#64717C"/>
<path d="M23.619 17.4762C24.934 17.4762 25.9999 16.4102 25.9999 15.0952C25.9999 13.7803 24.934 12.7143 23.619 12.7143C22.304 12.7143 21.238 13.7803 21.238 15.0952C21.238 16.4102 22.304 17.4762 23.619 17.4762Z" fill="url(#paint0_radial_2120_24860)"/>
<path d="M8.38095 17.4762C9.69592 17.4762 10.7619 16.4102 10.7619 15.0952C10.7619 13.7803 9.69592 12.7143 8.38095 12.7143C7.06599 12.7143 6 13.7803 6 15.0952C6 16.4102 7.06599 17.4762 8.38095 17.4762Z" fill="url(#paint1_radial_2120_24860)"/>
<path d="M16 25.0952C20.9969 25.0952 25.0476 22.1105 25.0476 18.4286C25.0476 14.7467 20.9969 11.7619 16 11.7619C11.0031 11.7619 6.95239 14.7467 6.95239 18.4286C6.95239 22.1105 11.0031 25.0952 16 25.0952Z" fill="url(#paint2_linear_2120_24860)"/>
<path d="M18.857 15.5714C18.0685 15.571 17.4289 16.21 17.4285 16.9991C17.428 17.7876 18.067 18.4272 18.8561 18.4276C18.8566 18.4276 18.857 18.4276 18.857 18.4276C19.6456 18.4281 20.2851 17.7891 20.2856 17C20.2861 16.2114 19.647 15.5719 18.858 15.5714C18.858 15.5714 18.8575 15.5714 18.857 15.5714Z" fill="#D43A02"/>
<path d="M13.1429 15.5714C12.3544 15.571 11.7148 16.21 11.7144 16.9991C11.7139 17.7876 12.3529 18.4272 13.142 18.4276C13.1425 18.4276 13.1429 18.4276 13.1429 18.4276C13.9315 18.4281 14.571 17.7891 14.5715 17C14.572 16.2114 13.9329 15.5719 13.1439 15.5714C13.1439 15.5714 13.1434 15.5714 13.1429 15.5714Z" fill="#D43A02"/>
<path d="M16.0009 21.2391C14.4523 21.2391 13.0771 20.8843 12.1904 20.3333C12.678 21.3067 14.1885 22.2381 16.0009 22.2381C17.8114 22.2381 19.3228 21.3067 19.8095 20.3333C18.9252 20.8843 17.5495 21.2391 16.0009 21.2391Z" fill="#64717C"/>
<path d="M23.1429 10.3333C23.9319 10.3333 24.5715 9.69375 24.5715 8.90477C24.5715 8.11579 23.9319 7.4762 23.1429 7.4762C22.3539 7.4762 21.7144 8.11579 21.7144 8.90477C21.7144 9.69375 22.3539 10.3333 23.1429 10.3333Z" fill="url(#paint3_linear_2120_24860)"/>
<defs>
<radialGradient id="paint0_radial_2120_24860" cx="0" cy="0" r="1" gradientUnits="userSpaceOnUse" gradientTransform="translate(21.8366 17.7395) scale(5.56667)">
<stop stop-color="#BBC1C4"/>
<stop offset="0.652" stop-color="#BBC1C4"/>
<stop offset="0.74" stop-color="#C1C7C9"/>
<stop offset="0.861" stop-color="#D3D6D8"/>
<stop offset="1" stop-color="#F0F0F0"/>
</radialGradient>
<radialGradient id="paint1_radial_2120_24860" cx="0" cy="0" r="1" gradientUnits="userSpaceOnUse" gradientTransform="translate(10.1633 17.7395) rotate(180) scale(5.56667)">
<stop stop-color="#BBC1C4"/>
<stop offset="0.652" stop-color="#BBC1C4"/>
<stop offset="0.74" stop-color="#C1C7C9"/>
<stop offset="0.861" stop-color="#D3D6D8"/>
<stop offset="1" stop-color="#F0F0F0"/>
</radialGradient>
<linearGradient id="paint2_linear_2120_24860" x1="16" y1="11.7405" x2="16" y2="25.0738" gradientUnits="userSpaceOnUse">
<stop stop-color="#F0F0F0"/>
<stop offset="1" stop-color="#BBC1C4"/>
</linearGradient>
<linearGradient id="paint3_linear_2120_24860" x1="22.1882" y1="7.95001" x2="24.282" y2="10.0438" gradientUnits="userSpaceOnUse">
<stop stop-color="#F0F0F0"/>
<stop offset="1" stop-color="#BBC1C4"/>
</linearGradient>
</defs>
</svg>
