<svg width="32" height="32" viewBox="0 0 32 32" fill="none" xmlns="http://www.w3.org/2000/svg">
<path d="M0 16C0 24.8366 7.16344 32 16 32C24.8366 32 32 24.8366 32 16C32 7.16344 24.8366 0 16 0C7.16344 0 0 7.16344 0 16Z" fill="white"/>
<path d="M16.0433 22.5147C12.4799 22.5147 10.8518 20.6994 10.8518 19.368C10.8513 19.0504 10.9817 18.7466 11.2122 18.5281C11.4427 18.3096 11.7531 18.1957 12.0702 18.2132C13.5959 18.2132 13.1968 20.5017 16.0433 20.5017C17.4983 20.5017 18.353 19.6258 18.353 18.803C18.353 18.3085 18.0704 17.7435 17.1098 17.5174L13.9314 16.7158C11.378 16.066 10.933 14.6462 10.933 13.3289C10.933 10.5955 13.4334 9.60662 15.8137 9.60662C18.0069 9.60662 20.6132 10.818 20.6132 12.4566C20.6132 13.163 20.0234 13.5408 19.3383 13.5408C18.0351 13.5408 18.2541 11.7115 15.6336 11.7115C14.3305 11.7115 13.6453 12.3224 13.6453 13.1771C13.6453 14.0317 14.6589 14.3213 15.5489 14.5156L17.8939 15.0453C20.4649 15.6245 21.15 17.1325 21.15 18.5769C21.15 20.7983 19.4301 22.5147 16.0398 22.5147H16.0433ZM25.8824 17.8141C25.9842 17.231 26.035 16.6402 26.0343 16.0483C26.0467 13.0751 24.7403 10.2493 22.4672 8.33278C20.1941 6.41624 17.1882 5.60616 14.2598 6.12091C13.3598 5.60269 12.3389 5.33104 11.3003 5.33336C9.1685 5.34638 7.20347 6.48893 6.13756 8.3352C5.07165 10.1815 5.06476 12.4545 6.11944 14.3072C5.53094 17.5409 6.56183 20.8579 8.87959 23.1883C11.1974 25.5188 14.5087 26.5677 17.7455 25.9969C18.6445 26.5146 19.6641 26.7863 20.7015 26.7844C22.8323 26.7707 24.7961 25.6286 25.8618 23.7835C26.9274 21.9383 26.9353 19.6666 25.8824 17.8141Z" fill="#0078D7"/>
</svg>
