<svg width="32" height="32" viewBox="0 0 32 32" fill="none" xmlns="http://www.w3.org/2000/svg">
<ellipse cx="15.9916" cy="15.9916" rx="15.9916" ry="15.9916" fill="url(#paint0_linear_1997_23107)"/>
<path opacity="0.07" d="M7.66082 12.8951C7.51156 12.8951 7.35698 12.9297 7.21394 13.0017C6.97851 13.1189 6.8026 13.3215 6.71909 13.5712C6.58494 13.9736 6.72265 14.4152 7.06202 14.6692L10.3279 16.7091L10.2008 17.0484C10.1422 17.2075 8.71715 20.9601 6.02257 22.4296C5.87954 22.5078 5.78803 22.6126 5.77914 22.7112C5.76937 22.8107 5.84844 22.9005 5.91685 22.9573C6.49965 23.4451 7.102 23.7915 8.30226 24.0119L8.66562 24.0785L8.66651 24.4481C8.66829 24.9882 8.83975 25.5595 8.99967 25.5595C9.79303 25.5595 11.4437 25.5595 13.0935 26.3839C14.0086 26.8415 15.2897 27.1151 15.9995 27.1151C16.7094 27.1151 17.9905 26.8415 18.9055 26.3839C20.5545 25.5595 22.206 25.5595 22.9994 25.5595C23.1602 25.5595 23.3317 24.9882 23.3325 24.4481L23.3334 24.0785L23.6968 24.0119C24.897 23.7924 25.4994 23.4459 26.0831 22.9573C26.1515 22.9005 26.2306 22.8107 26.2208 22.7112C26.211 22.6126 26.1195 22.5078 25.9774 22.4296C23.2837 20.9601 21.8587 17.2075 21.7991 17.0484L21.6721 16.7091L24.9681 14.6479C25.2764 14.4143 25.4141 13.9736 25.28 13.5712C25.1973 13.3215 25.0214 13.1198 24.786 13.0017C24.5515 12.8835 24.2849 12.8658 24.0344 12.9484L21.7725 13.8741V10.7584C21.7725 7.52812 19.1836 4.90018 16.0013 4.90018C12.8154 4.90018 10.2266 7.52812 10.2266 10.7584V13.875L7.938 12.9395C7.85183 12.9102 7.75765 12.8951 7.66082 12.8951Z" fill="black"/>
<path opacity="0.05" d="M16.0004 27.5594C16.7716 27.5594 18.1211 27.2733 19.1046 26.782C20.6602 26.0046 22.222 26.0046 22.9994 26.0046C23.7768 26.0046 23.7768 24.449 23.7768 24.449C25.0126 24.2233 25.6922 23.8644 26.3683 23.2985C26.84 22.9031 26.7299 22.3346 26.1897 22.0405C23.6106 20.6341 22.2149 16.8939 22.2149 16.8939L25.2036 15.0246C25.6958 14.6559 25.8956 14.0136 25.702 13.4299C25.4523 12.681 24.6421 12.2768 23.894 12.5273L22.2176 13.2123V10.7584C22.2176 7.32559 19.4351 4.45599 16.0022 4.45599H15.9986C12.5658 4.45599 9.78326 7.32559 9.78326 10.7584V13.2131L8.10682 12.5282C7.35788 12.2776 6.54853 12.6819 6.29888 13.4308C6.10432 14.0136 6.3051 14.6559 6.79728 15.0255L9.78593 16.8948C9.78593 16.8948 8.39111 20.6341 5.81114 22.0414C5.27098 22.3354 5.16082 22.9049 5.63257 23.2994C6.30777 23.8653 6.98829 24.2242 8.22409 24.4499C8.22409 24.4499 8.22409 26.0055 9.00145 26.0055C9.77882 26.0055 11.3407 26.0055 12.8963 26.7829C13.8798 27.2733 15.2293 27.5594 16.0004 27.5594Z" stroke="#1D1D1B" stroke-width="4"/>
<path opacity="0.07" d="M16.0004 27.5594C16.7716 27.5594 18.1211 27.2733 19.1046 26.782C20.6602 26.0046 22.222 26.0046 22.9994 26.0046C23.7768 26.0046 23.7768 24.449 23.7768 24.449C25.0126 24.2233 25.6922 23.8644 26.3683 23.2985C26.84 22.9031 26.7299 22.3346 26.1897 22.0405C23.6106 20.6341 22.2149 16.8939 22.2149 16.8939L25.2036 15.0246C25.6958 14.6559 25.8956 14.0136 25.702 13.4299C25.4523 12.681 24.6421 12.2768 23.894 12.5273L22.2176 13.2123V10.7584C22.2176 7.32559 19.4351 4.45599 16.0022 4.45599H15.9986C12.5658 4.45599 9.78326 7.32559 9.78326 10.7584V13.2131L8.10682 12.5282C7.35788 12.2776 6.54853 12.6819 6.29888 13.4308C6.10432 14.0136 6.3051 14.6559 6.79728 15.0255L9.78593 16.8948C9.78593 16.8948 8.39111 20.6341 5.81114 22.0414C5.27098 22.3354 5.16082 22.9049 5.63257 23.2994C6.30777 23.8653 6.98829 24.2242 8.22409 24.4499C8.22409 24.4499 8.22409 26.0055 9.00145 26.0055C9.77882 26.0055 11.3407 26.0055 12.8963 26.7829C13.8798 27.2733 15.2293 27.5594 16.0004 27.5594Z" stroke="black" stroke-width="2"/>
<path d="M16.0004 27.5594C16.7716 27.5594 18.1211 27.2733 19.1046 26.782C20.6602 26.0046 22.222 26.0046 22.9994 26.0046C23.7768 26.0046 23.7768 24.449 23.7768 24.449C25.0126 24.2233 25.6922 23.8644 26.3683 23.2985C26.84 22.9031 26.7299 22.3346 26.1897 22.0405C23.6106 20.6341 22.2149 16.8939 22.2149 16.8939L25.2036 15.0246C25.6958 14.6559 25.8956 14.0136 25.702 13.4299C25.4523 12.681 24.6421 12.2768 23.894 12.5273L22.2176 13.2123V10.7584C22.2176 7.32559 19.4351 4.45599 16.0022 4.45599H15.9986C12.5658 4.45599 9.78326 7.32559 9.78326 10.7584V13.2131L8.10682 12.5282C7.35788 12.2776 6.54853 12.6819 6.29888 13.4308C6.10432 14.0136 6.3051 14.6559 6.79728 15.0255L9.78593 16.8948C9.78593 16.8948 8.39111 20.6341 5.81114 22.0414C5.27098 22.3354 5.16082 22.9049 5.63257 23.2994C6.30777 23.8653 6.98829 24.2242 8.22409 24.4499C8.22409 24.4499 8.22409 26.0055 9.00145 26.0055C9.77882 26.0055 11.3407 26.0055 12.8963 26.7829C13.8798 27.2733 15.2293 27.5594 16.0004 27.5594Z" fill="white"/>
<defs>
<linearGradient id="paint0_linear_1997_23107" x1="12.9739" y1="-1.12681" x2="19.0101" y2="33.1108" gradientUnits="userSpaceOnUse">
<stop stop-color="#FEDE00"/>
<stop offset="1" stop-color="#FFD000"/>
</linearGradient>
</defs>
</svg>
