<svg width="32" height="32" viewBox="0 0 32 32" fill="none" xmlns="http://www.w3.org/2000/svg">
<path d="M16 0C7.1384 0 0 7.1384 0 16C0 24.8616 7.1384 32 16 32C24.8608 32 32 24.8616 32 16C32 7.1384 24.8608 0 16 0Z" fill="#8BC34A"/>
<path d="M22.1968 23.932C21.9632 23.932 21.7288 23.816 21.4952 23.6984C19.2736 22.4128 16.584 21.7112 13.6616 21.7112C12.024 21.7112 10.3872 21.944 8.86721 22.2952C8.63361 22.2952 8.28241 22.412 8.16561 22.412C7.58081 22.412 7.23041 21.9432 7.23041 21.476C7.23041 20.892 7.58081 20.54 8.04881 20.4248C9.91921 19.956 11.7904 19.7232 13.7776 19.7232C17.052 19.7232 20.092 20.54 22.664 22.0624C23.0144 22.2952 23.2488 22.5296 23.2488 23.1136C23.132 23.5824 22.664 23.932 22.1968 23.932ZM23.8336 19.956C23.4832 19.956 23.2496 19.8408 23.0152 19.7232C20.5608 18.2032 17.1688 17.2664 13.3112 17.2664C11.44 17.2664 9.68641 17.5008 8.40001 17.8528C8.04881 17.968 7.93201 17.968 7.69841 17.968C6.99681 17.968 6.52881 17.384 6.52881 16.7992C6.52881 16.0976 6.88001 15.7464 7.46401 15.5136C9.21761 15.0464 10.972 14.6952 13.4272 14.6952C17.4032 14.6952 21.2616 15.6312 24.3016 17.5008C24.7688 17.7336 25.0032 18.2024 25.0032 18.6696C25.0032 19.372 24.5352 19.956 23.8336 19.956ZM25.7048 15.2808C25.3544 15.2808 25.2368 15.164 24.8864 15.048C22.08 13.4104 17.8712 12.4744 13.7784 12.4744C11.6736 12.4744 9.56881 12.7088 7.69841 13.176C7.46401 13.176 7.23041 13.2928 6.88001 13.2928C6.06161 13.4096 5.47681 12.7088 5.47681 11.8896C5.47681 11.0712 5.94481 10.604 6.52881 10.4864C8.75041 9.78478 11.0888 9.55038 13.7784 9.55038C18.2216 9.55038 22.8984 10.4864 26.4064 12.4736C26.8736 12.708 27.224 13.1752 27.224 13.8768C27.108 14.6952 26.5224 15.2808 25.7048 15.2808Z" fill="white"/>
</svg>
