<svg width="99" height="21" viewBox="0 0 99 21" fill="none" xmlns="http://www.w3.org/2000/svg">
<mask id="path-1-inside-1_105_18" fill="white">
<path fill-rule="evenodd" clip-rule="evenodd" d="M99 1.07489C98.1176 1.18349 97.2519 1.4095 96.426 1.74831L53.2956 19.4428C50.8635 20.4406 48.1365 20.4406 45.7044 19.4428L2.57401 1.74831C1.74815 1.4095 0.882366 1.18349 0 1.07489V0H99V1.07489Z"/>
</mask>
<path fill-rule="evenodd" clip-rule="evenodd" d="M99 1.07489C98.1176 1.18349 97.2519 1.4095 96.426 1.74831L53.2956 19.4428C50.8635 20.4406 48.1365 20.4406 45.7044 19.4428L2.57401 1.74831C1.74815 1.4095 0.882366 1.18349 0 1.07489V0H99V1.07489Z" fill="#1D2128"/>
<path d="M99 1.07489L99.1222 2.0674L100 1.95936V1.07489H99ZM96.426 1.74831L96.8055 2.67348L96.8055 2.67348L96.426 1.74831ZM53.2956 19.4428L52.916 18.5177L52.916 18.5177L53.2956 19.4428ZM45.7044 19.4428L46.084 18.5177L46.084 18.5177L45.7044 19.4428ZM2.57401 1.74831L2.95357 0.823145L2.95357 0.823145L2.57401 1.74831ZM0 1.07489H-1V1.95936L-0.122156 2.0674L0 1.07489ZM0 0V-1H-1V0H0ZM99 0H100V-1H99V0ZM98.8778 0.0823768C97.9072 0.201835 96.9549 0.450445 96.0464 0.823146L96.8055 2.67348C97.5488 2.36855 98.328 2.16514 99.1222 2.0674L98.8778 0.0823768ZM96.0464 0.823145L52.916 18.5177L53.6751 20.368L96.8055 2.67348L96.0464 0.823145ZM52.916 18.5177C50.7272 19.4157 48.2728 19.4157 46.084 18.5177L45.3249 20.368C48.0001 21.4655 50.9999 21.4655 53.6751 20.368L52.916 18.5177ZM46.084 18.5177L2.95357 0.823145L2.19446 2.67348L45.3249 20.368L46.084 18.5177ZM2.95357 0.823145C2.04512 0.450446 1.09276 0.201837 0.122156 0.0823781L-0.122156 2.0674C0.671976 2.16514 1.45118 2.36855 2.19446 2.67348L2.95357 0.823145ZM1 1.07489V0H-1V1.07489H1ZM0 1H99V-1H0V1ZM98 0V1.07489H100V0H98Z" fill="white" fill-opacity="0.2" mask="url(#path-1-inside-1_105_18)"/>
<rect x="4" width="91" height="1" fill="#1D2128"/>
</svg>
