<svg width="24" height="24" viewBox="0 0 24 24" fill="none" xmlns="http://www.w3.org/2000/svg">
<path fill-rule="evenodd" clip-rule="evenodd" d="M15.0015 19.0029H8.99898C6.7916 18.9965 5.00378 17.2086 4.99731 15.0013V8.99875C5.00378 6.79137 6.7916 5.00354 8.99898 4.99708H15.0015C17.2089 5.00354 18.9967 6.79137 19.0031 8.99875V15.0013C18.9967 17.2086 17.2089 18.9965 15.0015 19.0029Z" stroke="black" stroke-width="1.5" stroke-linecap="round" stroke-linejoin="round"/>
<path d="M13.3855 4.99708V2.99625" stroke="black" stroke-width="1.5" stroke-linecap="round" stroke-linejoin="round"/>
<path d="M16.1557 5.16832V2.99625" stroke="black" stroke-width="1.5" stroke-linecap="round" stroke-linejoin="round"/>
<path d="M7.84445 5.16796V2.99625" stroke="black" stroke-width="1.5" stroke-linecap="round" stroke-linejoin="round"/>
<path d="M10.6152 4.99708V2.99625" stroke="black" stroke-width="1.5" stroke-linecap="round" stroke-linejoin="round"/>
<path d="M13.3855 21.0038V19.0029" stroke="black" stroke-width="1.5" stroke-linecap="round" stroke-linejoin="round"/>
<path d="M16.1557 21.0037V18.8314" stroke="black" stroke-width="1.5" stroke-linecap="round" stroke-linejoin="round"/>
<path d="M7.84445 21.0038V18.8315" stroke="black" stroke-width="1.5" stroke-linecap="round" stroke-linejoin="round"/>
<path d="M10.6152 21.0038V19.0029" stroke="black" stroke-width="1.5" stroke-linecap="round" stroke-linejoin="round"/>
<path d="M19.0029 13.3854H21.0038" stroke="black" stroke-width="1.5" stroke-linecap="round" stroke-linejoin="round"/>
<path d="M18.8318 16.1556H21.0039" stroke="black" stroke-width="1.5" stroke-linecap="round" stroke-linejoin="round"/>
<path d="M18.832 7.84442H21.0037" stroke="black" stroke-width="1.5" stroke-linecap="round" stroke-linejoin="round"/>
<path d="M19.0029 10.615H21.0038" stroke="black" stroke-width="1.5" stroke-linecap="round" stroke-linejoin="round"/>
<path d="M2.99634 13.3854H4.99717" stroke="black" stroke-width="1.5" stroke-linecap="round" stroke-linejoin="round"/>
<path d="M2.99634 16.1556H5.16867" stroke="black" stroke-width="1.5" stroke-linecap="round" stroke-linejoin="round"/>
<path d="M2.99634 7.84442H5.16856" stroke="black" stroke-width="1.5" stroke-linecap="round" stroke-linejoin="round"/>
<path d="M2.99634 10.615H4.99717" stroke="black" stroke-width="1.5" stroke-linecap="round" stroke-linejoin="round"/>
<path fill-rule="evenodd" clip-rule="evenodd" d="M14.001 16.0017H9.99937C8.89568 15.9984 8.00177 15.1045 7.99854 14.0008V9.99917C8.00177 8.89548 8.89568 8.00156 9.99937 7.99833H14.001C15.1047 8.00156 15.9986 8.89548 16.0019 9.99917V14.0008C15.9986 15.1045 15.1047 15.9984 14.001 16.0017Z" stroke="black" stroke-width="1.5" stroke-linecap="round" stroke-linejoin="round"/>
</svg>
