<svg width="24" height="24" viewBox="0 0 24 24" fill="none" xmlns="http://www.w3.org/2000/svg">
<path fill-rule="evenodd" clip-rule="evenodd" d="M9.70292 4.095L3.52892 7.525C2.23092 8.246 2.23092 10.112 3.52892 10.833L9.70292 14.263C11.1309 15.056 12.8679 15.056 14.2969 14.263L20.4709 10.833C21.7689 10.112 21.7689 8.246 20.4709 7.525L14.2969 4.095C12.8679 3.302 11.1319 3.302 9.70292 4.095Z" stroke="black" stroke-width="1.419" stroke-linecap="round" stroke-linejoin="round"/>
<path d="M5.99097 12.2V16.124C5.99097 17.073 6.46597 17.958 7.25497 18.483L8.86197 19.552C10.763 20.816 13.237 20.816 15.137 19.552L16.744 18.483C17.534 17.958 18.008 17.072 18.008 16.124V12.2" stroke="black" stroke-width="1.4167" stroke-linecap="round" stroke-linejoin="round"/>
</svg>
