<svg width="40" height="40" viewBox="0 0 40 40" fill="none" xmlns="http://www.w3.org/2000/svg">
<path fill-rule="evenodd" clip-rule="evenodd" d="M10 35.0001H6.66667C5.74667 35.0001 5 34.2534 5 33.3334V23.3334C5 22.4134 5.74667 21.6667 6.66667 21.6667H10C10.92 21.6667 11.6667 22.4134 11.6667 23.3334V33.3334C11.6667 34.2534 10.92 35.0001 10 35.0001Z" stroke="white" stroke-width="1.5" stroke-linecap="round" stroke-linejoin="round"/>
<path d="M21.6666 28.3333H25.555C26.2766 28.3333 26.9783 28.0999 27.555 27.6666L31.5816 24.6466C32.5866 23.8933 33.9933 23.9933 34.8816 24.8816V24.8816C35.8683 25.8683 35.8683 27.4666 34.8816 28.4516L31.4266 31.9066C30.4966 32.8366 29.31 33.4716 28.02 33.7299L23.1366 34.7066C22.1683 34.8999 21.17 34.8766 20.2116 34.6366L15.795 33.5333C15.2666 33.3999 14.725 33.3333 14.18 33.3333H11.6666" stroke="white" stroke-width="1.5" stroke-linecap="round" stroke-linejoin="round"/>
<path d="M21.6666 28.3334H24.1416C25.5366 28.3334 26.6666 27.2034 26.6666 25.8084V25.3034C26.6666 24.1451 25.8783 23.1351 24.755 22.8551L20.935 21.9001C20.3133 21.7451 19.6766 21.6667 19.0366 21.6667V21.6667C17.4916 21.6667 15.98 22.1234 14.695 22.9817L11.6666 25.0001" stroke="white" stroke-width="1.5" stroke-linecap="round" stroke-linejoin="round"/>
<path d="M28.6147 8.59193C30.4618 10.4391 30.4618 13.434 28.6147 15.2812C26.7675 17.1283 23.7726 17.1283 21.9254 15.2812C20.0782 13.434 20.0782 10.4391 21.9254 8.59193C23.7726 6.74475 26.7675 6.74475 28.6147 8.59193" stroke="white" stroke-width="1.5" stroke-linecap="round" stroke-linejoin="round"/>
<path d="M24.385 7.29159C24.23 6.34992 23.8 5.44492 23.0733 4.71825C21.2267 2.87159 18.2317 2.87159 16.385 4.71825C14.5383 6.56492 14.5383 9.55992 16.385 11.4066C17.535 12.5566 19.1283 12.9883 20.6133 12.7066" stroke="white" stroke-width="1.5" stroke-linecap="round" stroke-linejoin="round"/>
</svg>
