<svg width="24" height="24" viewBox="0 0 24 24" fill="none" xmlns="http://www.w3.org/2000/svg">
<path fill-rule="evenodd" clip-rule="evenodd" d="M7.5 3H16.504C18.987 3 21 5.013 21 7.496V16.505C21 18.987 18.987 21 16.504 21H7.496C5.013 21 3 18.987 3 16.504V7.5C3 5.015 5.015 3 7.5 3V3Z" stroke="black" stroke-width="1.5" stroke-linecap="round" stroke-linejoin="round"/>
<path d="M15.4286 17.2858L14.9391 17.8541C15.0814 17.9767 15.2646 18.0414 15.4523 18.0354L15.4286 17.2858ZM14.7667 15.619C14.51 15.2939 14.0384 15.2385 13.7133 15.4951C13.3882 15.7518 13.3327 16.2234 13.5894 16.5485L14.7667 15.619ZM14.8561 15.4673L14.5952 14.7642C14.5853 14.7678 14.5754 14.7717 14.5656 14.7758L14.8561 15.4673ZM13.3664 15.9091L13.2405 15.1697L13.2282 15.172L13.3664 15.9091ZM10.7055 15.8989L10.5633 16.6353L10.5679 16.6361L10.7055 15.8989ZM9.19521 15.4571L8.92186 16.1555L8.92258 16.1558L9.19521 15.4571ZM8.44513 15.1078L8.02812 15.7312C8.04458 15.7422 8.06147 15.7525 8.07874 15.7622L8.44513 15.1078ZM8.35271 15.0564L8.76906 14.4326C8.74308 14.4152 8.71605 14.3995 8.68812 14.3855L8.35271 15.0564ZM8.31162 15.0256L8.84195 14.4953C8.79269 14.446 8.7368 14.4039 8.67589 14.37L8.31162 15.0256ZM10.4106 16.5279C10.6672 16.2027 10.6117 15.7311 10.2865 15.4745C9.96138 15.2179 9.48976 15.2734 9.23315 15.5986L10.4106 16.5279ZM8.57143 17.2858L8.54769 18.0354C8.73863 18.0415 8.92468 17.9744 9.06787 17.848L8.57143 17.2858ZM6 15.3544H5.25C5.25 15.3945 5.25322 15.4345 5.25963 15.4741L6 15.3544ZM7.47944 8.07885L7.02944 7.47885C6.91459 7.56499 6.82687 7.68228 6.77671 7.8168L7.47944 8.07885ZM10.3664 7.00009L11.113 6.92898C11.077 6.5503 10.7631 6.2586 10.3828 6.25027L10.3664 7.00009ZM9.72253 8.15003C9.7618 8.56238 10.1279 8.86482 10.5403 8.82554C10.9526 8.78627 11.255 8.42016 11.2158 8.00781L9.72253 8.15003ZM12.7458 8.02446C12.693 8.4353 12.9833 8.81113 13.3941 8.8639C13.805 8.91666 14.1808 8.62639 14.2336 8.21555L12.7458 8.02446ZM13.6335 7.00016L13.6171 6.25034C13.2461 6.25848 12.9369 6.53661 12.8896 6.90461L13.6335 7.00016ZM16.5205 8.07892L17.2232 7.81685C17.1731 7.68235 17.0853 7.56507 16.9705 7.47894L16.5205 8.07892ZM18 15.3544L18.7404 15.4742C18.7468 15.4346 18.75 15.3945 18.75 15.3544H18ZM11.1267 13.2584L10.3767 13.2461V13.2584H11.1267ZM15.4286 17.2858C15.918 16.7175 15.918 16.7176 15.9181 16.7176L15.9181 16.7176C15.9181 16.7176 15.9181 16.7176 15.918 16.7175C15.918 16.7175 15.9179 16.7174 15.9177 16.7173C15.9173 16.717 15.9168 16.7165 15.916 16.7158C15.9145 16.7145 15.912 16.7124 15.9088 16.7096C15.9023 16.704 15.8926 16.6955 15.8799 16.6845C15.8547 16.6625 15.8179 16.6304 15.7727 16.5905C15.6821 16.5106 15.5586 16.4004 15.4262 16.2788C15.1447 16.0203 14.8775 15.7593 14.7667 15.619L13.5894 16.5485C13.7869 16.7987 14.1449 17.1387 14.4116 17.3836C14.5533 17.5137 14.6846 17.6308 14.7803 17.7153C14.8283 17.7576 14.8676 17.7919 14.895 17.8159C14.9088 17.8278 14.9196 17.8372 14.927 17.8437C14.9308 17.8469 14.9337 17.8494 14.9357 17.8512C14.9367 17.852 14.9375 17.8527 14.9381 17.8532C14.9384 17.8534 14.9386 17.8536 14.9388 17.8538C14.9389 17.8539 14.9389 17.8539 14.939 17.854C14.939 17.854 14.939 17.854 14.9391 17.854C14.9391 17.8541 14.9391 17.8541 15.4286 17.2858ZM15.6251 14.2348C15.2514 14.481 14.9015 14.6505 14.5952 14.7642L15.1171 16.1704C15.5299 16.0172 15.9814 15.7963 16.4501 15.4876L15.6251 14.2348ZM14.5656 14.7758C14.1011 14.971 13.663 15.0978 13.2405 15.1698L13.4924 16.6485C14.0356 16.556 14.5838 16.3952 15.1466 16.1587L14.5656 14.7758ZM13.2282 15.172C12.3499 15.3366 11.541 15.2919 10.8431 15.1616L10.5679 16.6361C11.411 16.7935 12.4103 16.8514 13.5046 16.6463L13.2282 15.172ZM10.8477 15.1625C10.3167 15.06 9.85767 14.9105 9.46784 14.7584L8.92258 16.1558C9.37512 16.3324 9.92292 16.5116 10.5633 16.6353L10.8477 15.1625ZM9.46856 14.7587C9.25282 14.6743 9.02941 14.5754 8.81152 14.4534L8.07874 15.7622C8.37467 15.9279 8.66493 16.055 8.92186 16.1555L9.46856 14.7587ZM8.86214 14.4844C8.83024 14.4631 8.80166 14.4466 8.77971 14.4347C8.7593 14.4237 8.74056 14.4144 8.7345 14.4113C8.72504 14.4066 8.7283 14.4082 8.73317 14.4108C8.73961 14.4143 8.75267 14.4216 8.76906 14.4326L7.93635 15.6802C7.96816 15.7014 7.99663 15.7177 8.01848 15.7296C8.03877 15.7406 8.05745 15.7498 8.06339 15.7528C8.07273 15.7575 8.0694 15.7559 8.06439 15.7532C8.05783 15.7496 8.04464 15.7422 8.02812 15.7312L8.86214 14.4844ZM8.68812 14.3855C8.72485 14.4039 8.76149 14.4271 8.79606 14.4547C8.82651 14.479 8.84841 14.5017 8.84195 14.4953L7.78129 15.5559C7.80827 15.5829 7.88708 15.6621 8.0173 15.7272L8.68812 14.3855ZM8.67589 14.37C8.59676 14.326 8.53693 14.2896 8.49894 14.2656C8.47997 14.2536 8.46652 14.2448 8.45891 14.2397C8.4551 14.2372 8.45277 14.2356 8.45194 14.235C8.45152 14.2348 8.45149 14.2347 8.45183 14.235C8.452 14.2351 8.45227 14.2353 8.45264 14.2355C8.45282 14.2357 8.45302 14.2358 8.45325 14.236C8.45337 14.236 8.45349 14.2361 8.45362 14.2362C8.45368 14.2363 8.45375 14.2363 8.45381 14.2364C8.45385 14.2364 8.4539 14.2364 8.45392 14.2364C8.45397 14.2365 8.45402 14.2365 8.02395 14.8509C7.59388 15.4654 7.59393 15.4654 7.59398 15.4655C7.594 15.4655 7.59406 15.4655 7.59409 15.4655C7.59417 15.4656 7.59424 15.4656 7.59432 15.4657C7.59447 15.4658 7.59463 15.4659 7.59479 15.466C7.59512 15.4663 7.59548 15.4665 7.59586 15.4668C7.59663 15.4673 7.5975 15.4679 7.59847 15.4686C7.60041 15.4699 7.60276 15.4715 7.60551 15.4734C7.61102 15.4772 7.61816 15.482 7.62688 15.4878C7.64431 15.4995 7.66811 15.515 7.69794 15.5339C7.75755 15.5715 7.84156 15.6224 7.94735 15.6812L8.67589 14.37ZM9.23315 15.5986C9.1198 15.7422 8.84952 16.0101 8.56827 16.2737C8.43549 16.3981 8.31164 16.5111 8.22085 16.593C8.17554 16.6339 8.13868 16.6669 8.11332 16.6896C8.10065 16.7009 8.09086 16.7096 8.08434 16.7154C8.08108 16.7182 8.07863 16.7204 8.07706 16.7218C8.07627 16.7225 8.0757 16.723 8.07535 16.7233C8.07518 16.7235 8.07506 16.7236 8.075 16.7236C8.07497 16.7237 8.07495 16.7237 8.07495 16.7237C8.07495 16.7237 8.07496 16.7237 8.07495 16.7237C8.07497 16.7237 8.07498 16.7236 8.57143 17.2858C9.06787 17.848 9.0679 17.848 9.06792 17.8479C9.06794 17.8479 9.06797 17.8479 9.068 17.8479C9.06805 17.8478 9.06812 17.8478 9.0682 17.8477C9.06837 17.8476 9.06859 17.8474 9.06887 17.8471C9.06943 17.8466 9.07022 17.8459 9.07122 17.845C9.07323 17.8433 9.07612 17.8407 9.07984 17.8374C9.08727 17.8308 9.09802 17.8212 9.11172 17.809C9.13909 17.7846 9.17825 17.7496 9.2261 17.7064C9.32162 17.6201 9.4526 17.5007 9.59392 17.3682C9.86085 17.1181 10.2158 16.7747 10.4106 16.5279L9.23315 15.5986ZM8.59517 16.5362C7.69815 16.5078 7.26171 16.1433 7.03203 15.8402C6.90781 15.6762 6.83176 15.5122 6.78748 15.3902C6.76561 15.3299 6.75237 15.2823 6.74526 15.2537C6.74172 15.2394 6.73976 15.2301 6.73905 15.2266C6.7387 15.2249 6.73866 15.2246 6.73889 15.2259C6.73901 15.2265 6.7392 15.2276 6.73945 15.229C6.73957 15.2297 6.73971 15.2306 6.73986 15.2315C6.73994 15.2319 6.74002 15.2324 6.74011 15.233C6.74015 15.2332 6.74022 15.2336 6.74024 15.2338C6.74031 15.2342 6.74037 15.2346 6 15.3544C5.25963 15.4741 5.2597 15.4746 5.25977 15.475C5.25979 15.4752 5.25987 15.4756 5.25992 15.4759C5.26002 15.4766 5.26013 15.4772 5.26025 15.4779C5.26048 15.4793 5.26073 15.4808 5.26101 15.4824C5.26156 15.4857 5.26221 15.4894 5.26297 15.4935C5.26448 15.5019 5.26641 15.512 5.26881 15.5239C5.27362 15.5477 5.28034 15.5784 5.28946 15.6151C5.30767 15.6885 5.33567 15.7867 5.37748 15.9019C5.46056 16.1308 5.60163 16.4361 5.83644 16.746C6.32483 17.3907 7.1741 17.9919 8.54769 18.0354L8.59517 16.5362ZM6.75 15.3544C6.75 13.7956 7.1012 12.0493 7.46502 10.6669C7.64547 9.98128 7.82596 9.3964 7.96105 8.9838C8.02853 8.77767 8.08454 8.615 8.12333 8.50477C8.14273 8.44967 8.15781 8.40771 8.16785 8.38001C8.17288 8.36617 8.17664 8.35589 8.17906 8.34933C8.18027 8.34604 8.18114 8.34369 8.18166 8.34228C8.18192 8.34157 8.18209 8.34111 8.18218 8.34088C8.18222 8.34076 8.18224 8.34071 8.18224 8.34071C8.18224 8.34071 8.18222 8.34076 8.18222 8.34076C8.1822 8.34083 8.18217 8.3409 7.47944 8.07885C6.77671 7.8168 6.77667 7.81691 6.77662 7.81703C6.7766 7.81709 6.77655 7.81723 6.7765 7.81735C6.77641 7.8176 6.7763 7.81791 6.77616 7.81827C6.77589 7.81901 6.77553 7.81998 6.77508 7.8212C6.77418 7.82363 6.77292 7.82702 6.77133 7.83134C6.76815 7.83999 6.76361 7.85239 6.7578 7.86841C6.74617 7.90045 6.72947 7.94695 6.70841 8.00679C6.66629 8.12645 6.60672 8.29957 6.53551 8.51707C6.3932 8.95172 6.20383 9.56542 6.01442 10.2851C5.63852 11.7134 5.25 13.6049 5.25 15.3544H6.75ZM7.92944 8.67885C8.57384 8.19554 9.19833 7.96355 9.65551 7.85199C9.88418 7.79619 10.0698 7.77084 10.1929 7.75937C10.2544 7.75365 10.2999 7.75141 10.327 7.75054C10.3406 7.75011 10.3495 7.75002 10.3534 7.75C10.3554 7.75 10.3561 7.75001 10.3555 7.75C10.3553 7.75 10.3547 7.74999 10.3537 7.74998C10.3533 7.74997 10.3527 7.74996 10.3521 7.74995C10.3518 7.74994 10.3515 7.74994 10.3511 7.74993C10.3509 7.74993 10.3506 7.74992 10.3506 7.74992C10.3503 7.74991 10.35 7.74991 10.3664 7.00009C10.3828 6.25027 10.3825 6.25026 10.3822 6.25025C10.3821 6.25025 10.3818 6.25024 10.3816 6.25024C10.3811 6.25023 10.3807 6.25022 10.3802 6.25021C10.3792 6.25019 10.3782 6.25018 10.377 6.25016C10.3747 6.25012 10.3721 6.25009 10.3691 6.25006C10.3631 6.25001 10.3558 6.24998 10.3471 6.25002C10.3297 6.25009 10.3069 6.25042 10.279 6.25131C10.2234 6.25309 10.1474 6.25712 10.0538 6.26584C9.86676 6.28326 9.60805 6.31956 9.29991 6.39475C8.68347 6.54517 7.86448 6.85256 7.02944 7.47885L7.92944 8.67885ZM9.61978 7.07119L9.72253 8.15003L11.2158 8.00781L11.113 6.92898L9.61978 7.07119ZM14.2336 8.21555L14.3774 7.0957L12.8896 6.90461L12.7458 8.02446L14.2336 8.21555ZM13.6335 7.00016C13.65 7.74998 13.6497 7.74998 13.6494 7.74999C13.6493 7.74999 13.649 7.75 13.6489 7.75C13.6485 7.75001 13.6482 7.75001 13.6479 7.75002C13.6472 7.75003 13.6467 7.75004 13.6462 7.75005C13.6453 7.75006 13.6447 7.75007 13.6444 7.75007C13.6439 7.75008 13.6446 7.75006 13.6466 7.75007C13.6505 7.75009 13.6594 7.75018 13.6729 7.75061C13.7 7.75148 13.7456 7.75371 13.807 7.75943C13.9301 7.7709 14.1158 7.79624 14.3444 7.85204C14.8016 7.96359 15.4261 8.19557 16.0705 8.6789L16.9705 7.47894C16.1355 6.8526 15.3165 6.54521 14.7 6.39479C14.3919 6.3196 14.1331 6.28331 13.9461 6.2659C13.8525 6.25718 13.7765 6.25316 13.7209 6.25138C13.693 6.25049 13.6702 6.25016 13.6528 6.25009C13.6441 6.25005 13.6368 6.25008 13.6308 6.25013C13.6278 6.25016 13.6252 6.25019 13.6229 6.25023C13.6217 6.25025 13.6207 6.25026 13.6197 6.25028C13.6192 6.25029 13.6188 6.2503 13.6183 6.25031C13.6181 6.25031 13.6178 6.25032 13.6177 6.25032C13.6174 6.25033 13.6171 6.25034 13.6335 7.00016ZM16.5205 8.07892C15.8178 8.34099 15.8177 8.34091 15.8177 8.34085C15.8177 8.34085 15.8177 8.3408 15.8177 8.3408C15.8177 8.34079 15.8177 8.34085 15.8178 8.34096C15.8178 8.34119 15.818 8.34166 15.8183 8.34236C15.8188 8.34377 15.8197 8.34613 15.8209 8.34941C15.8233 8.35598 15.8271 8.36625 15.8321 8.3801C15.8421 8.40779 15.8572 8.44975 15.8766 8.50485C15.9154 8.61508 15.9714 8.77775 16.0389 8.98387C16.174 9.39646 16.3545 9.98134 16.5349 10.667C16.8988 12.0494 17.25 13.7956 17.25 15.3544H18.75C18.75 13.6049 18.3615 11.7134 17.9855 10.2852C17.7961 9.56545 17.6067 8.95176 17.4644 8.51711C17.3932 8.29962 17.3336 8.1265 17.2915 8.00685C17.2705 7.94701 17.2538 7.9005 17.2421 7.86847C17.2363 7.85245 17.2318 7.84004 17.2286 7.83139C17.227 7.82707 17.2257 7.82368 17.2248 7.82126C17.2244 7.82004 17.224 7.81906 17.2238 7.81833C17.2236 7.81796 17.2235 7.81766 17.2234 7.81741C17.2234 7.81729 17.2233 7.81715 17.2233 7.81709C17.2233 7.81696 17.2232 7.81685 16.5205 8.07892ZM18 15.3544C17.2596 15.2346 17.2597 15.2341 17.2598 15.2337C17.2598 15.2336 17.2599 15.2332 17.2599 15.2329C17.26 15.2324 17.2601 15.2319 17.2601 15.2315C17.2603 15.2305 17.2604 15.2297 17.2606 15.229C17.2608 15.2275 17.261 15.2265 17.2611 15.2258C17.2613 15.2246 17.2613 15.2248 17.261 15.2266C17.2602 15.2301 17.2583 15.2394 17.2547 15.2536C17.2476 15.2823 17.2344 15.3299 17.2125 15.3901C17.1682 15.5121 17.0922 15.6762 16.9679 15.8402C16.7383 16.1433 16.3018 16.5078 15.4048 16.5362L15.4523 18.0354C16.8259 17.9919 17.6751 17.3906 18.1635 16.7461C18.3983 16.4361 18.5394 16.1308 18.6225 15.9019C18.6643 15.7867 18.6923 15.6885 18.7105 15.6152C18.7197 15.5784 18.7264 15.5477 18.7312 15.5239C18.7336 15.5121 18.7355 15.5019 18.737 15.4936C18.7378 15.4894 18.7384 15.4857 18.739 15.4824C18.7393 15.4808 18.7395 15.4793 18.7397 15.4779C18.7399 15.4773 18.74 15.4766 18.7401 15.476C18.7401 15.4757 18.7402 15.4752 18.7402 15.475C18.7403 15.4746 18.7404 15.4742 18 15.3544ZM10.0787 11.3681C9.01613 11.3681 8.28087 12.2832 8.28087 13.2584H9.78087C9.78087 12.9802 9.97014 12.8681 10.0787 12.8681V11.3681ZM8.28087 13.2584C8.28087 14.2386 9.03091 15.1489 10.0787 15.1489V13.6489C9.97587 13.6489 9.78087 13.5317 9.78087 13.2584H8.28087ZM10.0787 15.1489C11.1414 15.1489 11.8767 14.2337 11.8767 13.2584H10.3767C10.3767 13.5367 10.1874 13.6489 10.0787 13.6489V15.1489ZM11.8766 13.2708C11.893 12.2741 11.1307 11.3681 10.0787 11.3681V12.8681C10.1979 12.8681 10.381 12.9894 10.3768 13.2461L11.8766 13.2708ZM13.8288 11.3681C12.7662 11.3681 12.0308 12.2831 12.0308 13.2584H13.5308C13.5308 12.9803 13.72 12.8681 13.8288 12.8681V11.3681ZM12.0308 13.2584C12.0308 14.2387 12.7811 15.1489 13.8288 15.1489V13.6489C13.7258 13.6489 13.5308 13.5316 13.5308 13.2584H12.0308ZM13.8288 15.1489C14.8914 15.1489 15.6266 14.2336 15.6266 13.2584H14.1266C14.1266 13.5367 13.9373 13.6489 13.8288 13.6489V15.1489ZM15.6266 13.2584C15.6266 12.2832 14.8914 11.3681 13.8288 11.3681V12.8681C13.9374 12.8681 14.1266 12.9802 14.1266 13.2584H15.6266ZM8.93053 9.80139C10.1412 9.14114 11.0944 8.85126 12.0022 8.85081C12.9095 8.85037 13.861 9.13903 15.0681 9.80064L15.789 8.48525C14.4571 7.75521 13.2519 7.3502 12.0014 7.35081C10.7514 7.35143 9.54558 7.75738 8.21233 8.4845L8.93053 9.80139Z" fill="black"/>
</svg>
