<svg width="24" height="24" viewBox="0 0 24 24" fill="none" xmlns="http://www.w3.org/2000/svg">
<path d="M7.99992 4.0001C12.4182 6.20921 17.7907 11.5818 19.9998 16C22.2089 20.4182 20.4181 22.2091 15.9999 20C11.5816 17.7909 6.20908 12.4183 3.99996 8.00006C1.79084 3.58182 3.58169 1.79098 7.99992 4.0001" stroke="black" stroke-width="1.49999" stroke-linecap="round" stroke-linejoin="round"/>
<path d="M15.9999 4.00006C20.4181 1.79095 22.2089 3.58179 19.9998 8.00002C17.7907 12.4183 12.4182 17.7908 7.99992 19.9999C3.58168 22.209 1.79083 20.4182 3.99996 16C6.20907 11.5817 11.5816 6.20918 15.9999 4.00006" stroke="black" stroke-width="1.49999" stroke-linecap="round" stroke-linejoin="round"/>
<path d="M12.362 12C12.362 12.207 12.2 12.375 12 12.375C11.8 12.375 11.638 12.207 11.638 12C11.638 11.793 11.8 11.625 12 11.625C12.2 11.625 12.362 11.793 12.362 12" stroke="black" stroke-width="2" stroke-linecap="round" stroke-linejoin="round"/>
</svg>
