<svg width="32" height="32" viewBox="0 0 32 32" fill="none" xmlns="http://www.w3.org/2000/svg">
<path d="M30.9125 15.6C30.875 15.5 29.8125 13.15 27.4625 10.7875C24.325 7.6625 20.3625 6 16 6C11.6375 6 7.67501 7.6625 4.53751 10.7875C2.18751 13.15 1.12501 15.5 1.08751 15.6C1.0317 15.726 1.00287 15.8622 1.00287 16C1.00287 16.1378 1.0317 16.274 1.08751 16.4C1.12501 16.5 2.18751 18.85 4.53751 21.2125C7.67501 24.3375 11.6375 26 16 26C20.3625 26 24.325 24.3375 27.4625 21.2125C29.8125 18.85 30.875 16.5 30.9125 16.4C30.9683 16.274 30.9972 16.1378 30.9972 16C30.9972 15.8622 30.9683 15.726 30.9125 15.6V15.6ZM16 11.5C16.89 11.5 17.7601 11.7639 18.5001 12.2584C19.2401 12.7529 19.8169 13.4557 20.1575 14.2779C20.4981 15.1002 20.5872 16.005 20.4135 16.8779C20.2399 17.7508 19.8113 18.5526 19.182 19.182C18.5527 19.8113 17.7508 20.2399 16.8779 20.4135C16.005 20.5872 15.1002 20.4981 14.2779 20.1575C13.4557 19.8169 12.7529 19.2401 12.2584 18.5001C11.7639 17.76 11.5 16.89 11.5 16C11.5 14.8065 11.9741 13.6619 12.818 12.818C13.6619 11.9741 14.8065 11.5 16 11.5V11.5Z" fill="#1F2329"/>
</svg>
