<svg width="30" height="30" viewBox="0 0 30 30" fill="none" xmlns="http://www.w3.org/2000/svg">
<path d="M25.9907 11.9044C26.9782 12.8919 26.9782 14.493 25.9907 15.4806C25.0031 16.4681 23.402 16.4681 22.4145 15.4806C21.4269 14.493 21.4269 12.8919 22.4145 11.9044C23.402 10.9169 25.0031 10.9169 25.9907 11.9044" stroke="white" stroke-width="1.5" stroke-linecap="round" stroke-linejoin="round"/>
<path d="M17.753 7.39045C19.2736 8.91105 19.2736 11.3764 17.753 12.897C16.2324 14.4176 13.767 14.4176 12.2464 12.897C10.7258 11.3764 10.7258 8.91106 12.2464 7.39045C13.767 5.86985 16.2324 5.86985 17.753 7.39045" stroke="white" stroke-width="1.5" stroke-linecap="round" stroke-linejoin="round"/>
<path d="M7.5854 11.9044C8.57294 12.8919 8.57294 14.493 7.5854 15.4806C6.59786 16.4681 4.99675 16.4681 4.00921 15.4806C3.02167 14.493 3.02167 12.8919 4.00921 11.9044C4.99675 10.9169 6.59786 10.9169 7.5854 11.9044" stroke="white" stroke-width="1.5" stroke-linecap="round" stroke-linejoin="round"/>
<path d="M28.7498 23.75V22.38C28.7498 20.6538 27.351 19.255 25.6248 19.255H24.6235" stroke="white" stroke-width="1.5" stroke-linecap="round" stroke-linejoin="round"/>
<path d="M1.25 23.75V22.38C1.25 20.6538 2.64875 19.255 4.375 19.255H5.37625" stroke="white" stroke-width="1.5" stroke-linecap="round" stroke-linejoin="round"/>
<path d="M21.6739 23.75V21.7487C21.6739 19.3325 19.7152 17.3737 17.2989 17.3737H12.7002C10.2839 17.3737 8.3252 19.3325 8.3252 21.7487V23.75" stroke="white" stroke-width="1.5" stroke-linecap="round" stroke-linejoin="round"/>
</svg>
