<svg width="16" height="16" viewBox="0 0 16 16" fill="none" xmlns="http://www.w3.org/2000/svg">
<path fill-rule="evenodd" clip-rule="evenodd" d="M7.98857 1.92924C8.75471 1.42973 9.64848 1.16084 10.5683 1.1671C11.0341 1.16727 11.5073 1.23294 11.9633 1.38566C14.7585 2.29585 15.6868 5.3321 14.8902 7.87015L14.8879 7.87755L14.8854 7.88487C14.4409 9.16108 13.7141 10.3266 12.7607 11.28L12.755 11.2857L12.755 11.2856C11.4425 12.5566 10.0023 13.6849 8.45209 14.6567L8.44504 14.6611L8.44501 14.6611L8.27834 14.7618L8.01659 14.9199L7.7566 14.7589L7.58327 14.6515L7.58292 14.6513C6.02664 13.6859 4.578 12.5574 3.25338 11.2796L3.24569 11.2722L3.24577 11.2721C2.30004 10.3201 1.57301 9.16257 1.1218 7.8872L1.11921 7.87988L1.11685 7.87248C0.305457 5.3306 1.23696 2.29693 4.05462 1.37244C4.27875 1.29544 4.50981 1.24146 4.74205 1.21127L4.77414 1.2071H4.8065H4.85136C5.05127 1.17972 5.24919 1.1671 5.4465 1.1671H5.51984H5.52737L5.53491 1.16733C5.97563 1.18062 6.40455 1.25385 6.82082 1.3871H6.89255L6.99436 1.43546C7.01901 1.44717 7.0437 1.46041 7.06801 1.47529C7.20236 1.52114 7.34196 1.57688 7.48158 1.65188L7.71735 1.75736L7.73317 1.76443L7.74846 1.77259C7.83118 1.81671 7.91041 1.8729 7.96107 1.90935C7.97211 1.9173 7.9809 1.92366 7.98857 1.92924ZM11.8065 1.86043L11.6474 2.33446C11.3061 2.21991 10.9406 2.1671 10.5665 2.1671H10.5629V2.16709C9.74971 2.16124 8.95795 2.43021 8.30343 2.93038L7.99934 3.16275L7.69562 2.9299C7.67227 2.912 7.64476 2.89587 7.58971 2.86357C7.5767 2.85594 7.56215 2.84741 7.54576 2.83773L7.53943 2.834L7.53946 2.83395C7.5061 2.8136 7.47349 2.79064 7.45016 2.77396C7.43827 2.76546 7.42071 2.75272 7.40483 2.7412C7.39397 2.73333 7.38389 2.72602 7.37694 2.72101C7.33522 2.69099 7.30704 2.67205 7.2887 2.6611L7.05565 2.55684L7.03689 2.54845L7.01888 2.53854C6.92449 2.48663 6.81844 2.44473 6.6869 2.40247L6.57822 2.36755L6.56594 2.35588C6.22593 2.2417 5.87538 2.17875 5.51207 2.1671H5.4465C5.28267 2.1671 5.12084 2.1782 4.95869 2.20186L4.92279 2.2071H4.8865H4.84036C4.68414 2.2294 4.5283 2.26689 4.37683 2.31912L4.36937 2.32169L4.36935 2.32163C2.21765 3.02579 1.37646 5.38607 2.06715 7.56105C2.46887 8.69307 3.1142 9.71959 3.9515 10.5636C5.19924 11.7667 6.56073 12.8316 8.02129 13.7462C9.4731 12.8265 10.8234 11.7638 12.0564 10.5701C12.8985 9.72711 13.5431 8.69502 13.9384 7.56336C14.6188 5.38413 13.774 3.02585 11.6519 2.33593L11.8065 1.86043Z" fill="white"/>
</svg>
