<svg width="24" height="24" viewBox="0 0 24 24" fill="none" xmlns="http://www.w3.org/2000/svg">
<path fill-rule="evenodd" clip-rule="evenodd" d="M7.496 3H16.505C18.987 3 21 5.012 21 7.496V16.505C21 18.987 18.988 21 16.504 21H7.496C5.013 21 3 18.988 3 16.504V7.496C3 5.013 5.012 3 7.496 3Z" stroke="black" stroke-width="1.5" stroke-linecap="round" stroke-linejoin="round"/>
<path d="M16.949 6.713C16.763 6.714 16.612 6.865 16.612 7.051C16.612 7.237 16.764 7.388 16.95 7.388C17.136 7.388 17.287 7.237 17.287 7.051C17.288 6.864 17.136 6.713 16.949 6.713" stroke="black" stroke-width="1.5" stroke-linecap="round" stroke-linejoin="round"/>
<path d="M14.5455 9.45442C15.9514 10.8603 15.9514 13.1397 14.5455 14.5456C13.1396 15.9515 10.8602 15.9515 9.45432 14.5456C8.04843 13.1397 8.04843 10.8603 9.45432 9.45442C10.8602 8.04853 13.1396 8.04853 14.5455 9.45442" stroke="black" stroke-width="1.5" stroke-linecap="round" stroke-linejoin="round"/>
</svg>
