<svg width="24" height="24" viewBox="0 0 24 24" fill="none" xmlns="http://www.w3.org/2000/svg">
<path d="M13.7678 10.9822C14.7441 11.9585 14.7441 13.5414 13.7678 14.5177C12.7915 15.494 11.2085 15.494 10.2322 14.5177C9.25592 13.5414 9.25592 11.9585 10.2322 10.9822C11.2085 10.0059 12.7915 10.0059 13.7678 10.9822" stroke="black" stroke-width="1.5" stroke-linecap="round" stroke-linejoin="round"/>
<path d="M19.2538 4.98223C20.2302 5.95854 20.2302 7.54145 19.2538 8.51776C18.2775 9.49407 16.6946 9.49407 15.7183 8.51776C14.742 7.54145 14.742 5.95854 15.7183 4.98223C16.6946 4.00592 18.2775 4.00592 19.2538 4.98223" stroke="black" stroke-width="1.5" stroke-linecap="round" stroke-linejoin="round"/>
<path d="M18 12.25C19.533 12.25 21 12.783 22 13.583" stroke="black" stroke-width="1.5" stroke-linecap="round" stroke-linejoin="round"/>
<path d="M8.28168 4.98223C9.25799 5.95854 9.25799 7.54145 8.28168 8.51776C7.30537 9.49407 5.72246 9.49407 4.74615 8.51776C3.76984 7.54145 3.76984 5.95854 4.74615 4.98223C5.72246 4.00592 7.30537 4.00592 8.28168 4.98223" stroke="black" stroke-width="1.5" stroke-linecap="round" stroke-linejoin="round"/>
<path d="M2 13.583C3 12.783 4.467 12.25 6 12.25" stroke="black" stroke-width="1.5" stroke-linecap="round" stroke-linejoin="round"/>
<path d="M16.5909 19.75C15.4259 18.849 13.7519 18.25 11.9999 18.25C10.2479 18.25 8.57394 18.849 7.40894 19.75" stroke="black" stroke-width="1.5" stroke-linecap="round" stroke-linejoin="round"/>
</svg>
