<svg width="40" height="40" viewBox="0 0 40 40" fill="none" xmlns="http://www.w3.org/2000/svg">
<path d="M23.3317 8.33333C23.3334 6.49167 19.6001 5 15.0001 5C10.4001 5 6.67008 6.49333 6.66675 8.33333C6.66675 10.175 10.3967 11.6667 15.0001 11.6667C19.6034 11.6667 23.3334 10.175 23.3334 8.33333" stroke="white" stroke-width="1.5" stroke-linecap="round" stroke-linejoin="round"/>
<path d="M23.3333 8.33325V21.2666" stroke="white" stroke-width="1.5" stroke-linecap="round" stroke-linejoin="round"/>
<path d="M6.66821 15C6.66821 16.8417 10.3982 18.3333 15.0015 18.3333C19.6049 18.3333 23.3349 16.8417 23.3349 15" stroke="white" stroke-width="1.5" stroke-linecap="round" stroke-linejoin="round"/>
<path d="M32.8034 22.1967C35.7317 25.1251 35.7317 29.8751 32.8034 32.8034C29.8751 35.7317 25.1251 35.7317 22.1967 32.8034C19.2684 29.8751 19.2684 25.1251 22.1967 22.1967C25.1251 19.2684 29.8751 19.2684 32.8034 22.1967" stroke="white" stroke-width="1.5" stroke-linecap="round" stroke-linejoin="round"/>
<path d="M20.8415 24.0417C19.3382 24.6334 17.2765 25.0001 14.9999 25.0001C10.3982 25.0001 6.66821 23.5084 6.66821 21.6667" stroke="white" stroke-width="1.5" stroke-linecap="round" stroke-linejoin="round"/>
<path d="M20.7417 30.7399C19.2467 31.3116 17.2317 31.6666 15.0001 31.6666C10.3984 31.6666 6.66841 30.1749 6.66675 28.3333V8.33325" stroke="white" stroke-width="1.5" stroke-linecap="round" stroke-linejoin="round"/>
</svg>
