<svg width="24" height="24" viewBox="0 0 24 24" fill="none" xmlns="http://www.w3.org/2000/svg">
<path d="M7.74927 7.76324L10.3053 10.3113" stroke="#323232" stroke-width="1.5" stroke-linecap="round" stroke-linejoin="round"/>
<path d="M13.6919 13.6887L16.249 16.2378" stroke="#323232" stroke-width="1.5" stroke-linecap="round" stroke-linejoin="round"/>
<path d="M10.3053 13.6877L7.74927 16.2368" stroke="#323232" stroke-width="1.5" stroke-linecap="round" stroke-linejoin="round"/>
<path d="M16.248 7.76224L13.6909 10.3113" stroke="#323232" stroke-width="1.5" stroke-linecap="round" stroke-linejoin="round"/>
<path d="M18.0077 12.004H13.999" stroke="#323232" stroke-width="1.5" stroke-linecap="round" stroke-linejoin="round"/>
<path d="M9.99735 12.004H6.00269" stroke="#323232" stroke-width="1.5" stroke-linecap="round" stroke-linejoin="round"/>
<path d="M11.9961 6.0065V10.0052" stroke="#323232" stroke-width="1.5" stroke-linecap="round" stroke-linejoin="round"/>
<path d="M11.9961 13.9948V17.9935" stroke="#323232" stroke-width="1.5" stroke-linecap="round" stroke-linejoin="round"/>
<rect x="2.99634" y="2.99625" width="18.0075" height="18.0075" rx="5" stroke="#323232" stroke-width="1.5" stroke-linecap="round" stroke-linejoin="round"/>
<path fill-rule="evenodd" clip-rule="evenodd" d="M13.6918 13.6887C13.8963 13.1492 14.001 12.577 14.0009 12V12C14.0013 11.4245 13.8972 10.8537 13.6938 10.3153C13.1527 10.1102 12.5788 10.0051 12.0001 10.0052V10.0052C11.4227 10.0045 10.8499 10.1082 10.3094 10.3113C10.1054 10.851 10.0004 11.423 9.99927 12V12C9.99976 12.5755 10.1041 13.1463 10.3074 13.6847C10.8482 13.8896 11.4218 13.9947 12.0001 13.9948V13.9948C12.5779 13.9959 13.1511 13.8922 13.6918 13.6887V13.6887Z" stroke="#323232" stroke-width="1.5" stroke-linecap="round" stroke-linejoin="round"/>
</svg>
