<svg width="24" height="24" viewBox="0 0 24 24" fill="none" xmlns="http://www.w3.org/2000/svg">
<path fill-rule="evenodd" clip-rule="evenodd" d="M12.0001 21.0037C16.9727 21.0037 21.0038 16.9726 21.0038 12C21.0038 7.02737 16.9727 2.99625 12.0001 2.99625C7.02745 2.99625 2.99634 7.02737 2.99634 12C2.99634 16.9726 7.02745 21.0037 12.0001 21.0037Z" stroke="black" stroke-width="1.5" stroke-linecap="round" stroke-linejoin="round"/>
<path d="M12 7.99833C13.2277 7.99833 14.223 8.99357 14.223 10.2213C14.223 11.4489 13.2277 12.4442 12 12.4442C10.7723 12.4442 9.7771 11.4489 9.7771 10.2213C9.7771 8.99357 10.7723 7.99833 12 7.99833" stroke="black" stroke-width="1.5" stroke-linecap="round" stroke-linejoin="round"/>
<path fill-rule="evenodd" clip-rule="evenodd" d="M16.0019 16.4749C13.7918 18.6848 10.2086 18.6848 7.99854 16.4749C8.11549 16.1825 8.2959 15.9197 8.52676 15.7055V15.7055C8.91703 15.3432 9.4298 15.1417 9.96235 15.1413H14.0391C14.5713 15.1416 15.0838 15.3432 15.4736 15.7055V15.7055C15.705 15.9193 15.8855 16.1821 16.0019 16.4749V16.4749Z" stroke="black" stroke-width="1.5" stroke-linecap="round" stroke-linejoin="round"/>
</svg>
