<svg width="24" height="24" viewBox="0 0 24 24" fill="none" xmlns="http://www.w3.org/2000/svg">
<path fill-rule="evenodd" clip-rule="evenodd" d="M7.5 3H16.504C18.987 3 21 5.013 21 7.496V16.505C21 18.987 18.987 21 16.504 21H7.496C5.013 21 3 18.987 3 16.504V7.5C3 5.015 5.015 3 7.5 3V3Z" stroke="black" stroke-width="1.5" stroke-linecap="round" stroke-linejoin="round"/>
<path fill-rule="evenodd" clip-rule="evenodd" d="M15.255 9.225C15.255 7.428 13.798 5.97 12 5.97C10.202 5.97 8.745 7.427 8.745 9.225C8.745 12.074 8.603 13.498 6 14.637C7.333 15.225 7.333 15.225 8 16.637C10 16.637 10.667 17.97 12 17.97C13.333 17.97 14 16.637 16 16.637C16.667 15.225 16.667 15.225 18 14.637C15.396 13.497 15.255 12.073 15.255 9.225Z" stroke="black" stroke-width="1.5" stroke-linecap="round" stroke-linejoin="round"/>
<path d="M6 14.637C8.667 13.225 8.667 11.892 6.667 9.892" stroke="black" stroke-width="1.5" stroke-linecap="round" stroke-linejoin="round"/>
<path d="M18.0001 14.637C15.3331 13.225 15.3331 11.892 17.3331 9.892" stroke="black" stroke-width="1.5" stroke-linecap="round" stroke-linejoin="round"/>
</svg>
