<svg width="24" height="24" viewBox="0 0 24 24" fill="none" xmlns="http://www.w3.org/2000/svg">
<path d="M5.15991 6.16C5.62091 5.62 6.14591 5.139 6.72191 4.722" stroke="black" stroke-width="1.5" stroke-linecap="round" stroke-linejoin="round"/>
<path d="M16.9999 19.482C15.5699 20.44 13.8509 21 11.9999 21C11.0879 21 10.2089 20.862 9.37988 20.61" stroke="black" stroke-width="1.5" stroke-linecap="round" stroke-linejoin="round"/>
<path d="M6.34895 19C5.06795 17.965 4.08395 16.583 3.52295 15" stroke="black" stroke-width="1.5" stroke-linecap="round" stroke-linejoin="round"/>
<path d="M3.52297 9C3.18997 9.94 2.99997 10.946 2.99997 12" stroke="black" stroke-width="1.5" stroke-linecap="round" stroke-linejoin="round"/>
<path d="M12 8.5V15.5" stroke="black" stroke-width="1.5" stroke-linecap="round" stroke-linejoin="round"/>
<path d="M15.5 12H8.5" stroke="black" stroke-width="1.5" stroke-linecap="round" stroke-linejoin="round"/>
<path d="M19.463 17C20.427 15.569 21 13.855 21 12C21 7.029 16.971 3 12 3" stroke="black" stroke-width="1.5" stroke-linecap="round" stroke-linejoin="round"/>
</svg>
