<svg width="24" height="24" viewBox="0 0 24 24" fill="none" xmlns="http://www.w3.org/2000/svg">
<path fill-rule="evenodd" clip-rule="evenodd" d="M7.5 3H16.504C18.987 3 21 5.013 21 7.496V16.505C21 18.987 18.987 21 16.504 21H7.496C5.013 21 3 18.987 3 16.504V7.5C3 5.015 5.015 3 7.5 3V3Z" stroke="black" stroke-width="1.5" stroke-linecap="round" stroke-linejoin="round"/>
<path d="M12.2975 6V14.8571H13.7975V6H12.2975ZM10.1904 16.9643C9.02665 16.9643 8.08325 16.0209 8.08325 14.8571H6.58325C6.58325 16.8493 8.19823 18.4643 10.1904 18.4643V16.9643ZM12.2975 14.8571C12.2975 16.0209 11.3541 16.9643 10.1904 16.9643V18.4643C12.1826 18.4643 13.7975 16.8493 13.7975 14.8571H12.2975ZM10.1904 11.25C8.19822 11.25 6.58325 12.865 6.58325 14.8571H8.08325C8.08325 13.6934 9.02665 12.75 10.1904 12.75V11.25ZM17.3333 9.82143C15.3805 9.82143 13.7975 8.23844 13.7975 6.28571H12.2975C12.2975 9.06686 14.5521 11.3214 17.3333 11.3214V9.82143Z" fill="white"/>
</svg>
