<svg width="24" height="24" viewBox="0 0 24 24" fill="none" xmlns="http://www.w3.org/2000/svg">
<path d="M16 7V10" stroke="black" stroke-width="1.5" stroke-linecap="round" stroke-linejoin="round"/>
<path d="M16 7V10" stroke="black" stroke-width="1.5" stroke-linecap="round" stroke-linejoin="round"/>
<path d="M12 7V10" stroke="black" stroke-width="1.5" stroke-linecap="round" stroke-linejoin="round"/>
<path fill-rule="evenodd" clip-rule="evenodd" d="M19.707 13.293L16.293 16.707C16.105 16.895 15.851 17 15.586 17H12L8 21V17H5C4.448 17 4 16.552 4 16V7.414C4 7.149 4.105 6.894 4.293 6.707L7.707 3.293C7.895 3.105 8.149 3 8.414 3H19C19.552 3 20 3.448 20 4V12.586C20 12.851 19.895 13.105 19.707 13.293Z" stroke="black" stroke-width="1.5" stroke-linecap="round" stroke-linejoin="round"/>
</svg>
