<svg width="24" height="24" viewBox="0 0 24 24" fill="none" xmlns="http://www.w3.org/2000/svg">
<path fill-rule="evenodd" clip-rule="evenodd" d="M21.583 6.373C21.354 5.369 20.676 4.577 19.814 4.305C18.255 3.818 12 3.818 12 3.818C12 3.818 5.748 3.818 4.186 4.305C3.327 4.573 2.649 5.365 2.417 6.373C2 8.195 2 12 2 12C2 12 2 15.805 2.417 17.627C2.646 18.631 3.324 19.423 4.186 19.695C5.748 20.182 12 20.182 12 20.182C12 20.182 18.255 20.182 19.814 19.695C20.673 19.427 21.351 18.635 21.583 17.627C22 15.805 22 12 22 12C22 12 22 8.195 21.583 6.373Z" stroke="black" stroke-width="1.5" stroke-linecap="round" stroke-linejoin="round"/>
<path fill-rule="evenodd" clip-rule="evenodd" d="M10.002 15L15.198 12L10.002 9V15Z" stroke="black" stroke-width="1.5" stroke-linecap="round" stroke-linejoin="round"/>
</svg>
