<svg width="16" height="16" viewBox="0 0 16 16" fill="none" xmlns="http://www.w3.org/2000/svg">
<path fill-rule="evenodd" clip-rule="evenodd" d="M14.664 5.58342H11.8409C10.5271 5.58573 9.46279 6.62343 9.46042 7.90438C9.45864 9.18821 10.5241 10.2305 11.8409 10.2323H14.6663V10.4362C14.6663 12.6757 13.3087 14 11.0112 14H4.98871C2.69064 14 1.33301 12.6757 1.33301 10.4362V5.55857C1.33301 3.31908 2.69064 2 4.98871 2H11.0089C13.3063 2 14.664 3.31908 14.664 5.55857V5.58342ZM4.49271 5.57822H8.25271H8.25508H8.25982C8.5413 5.57706 8.76886 5.35346 8.76767 5.07843C8.76649 4.80399 8.53656 4.58212 8.25508 4.58327H4.49271C4.21301 4.58443 3.98604 4.80572 3.98486 5.07901C3.98367 5.35346 4.21123 5.57706 4.49271 5.57822Z" fill="white"/>
<path opacity="0.4" d="M10.691 8.19778C10.8304 8.83191 11.3863 9.27805 12.0211 9.26645H14.1877C14.4518 9.26645 14.666 9.04773 14.666 8.77737V7.08967C14.6654 6.81989 14.4518 6.60059 14.1877 6.60001H11.9701C11.2481 6.60233 10.6649 7.20164 10.666 7.94019C10.666 8.02664 10.6745 8.11308 10.691 8.19778Z" fill="white"/>
<ellipse cx="11.9997" cy="7.93333" rx="0.666667" ry="0.666667" fill="white"/>
</svg>
