<svg width="16" height="16" viewBox="0 0 16 16" fill="none" xmlns="http://www.w3.org/2000/svg">
<path d="M14.0667 6.39191H13.2646V5.60774C13.2646 5.27296 12.9962 5 12.6653 5C12.3352 5 12.066 5.27296 12.066 5.60774V6.39191H11.2653C10.9345 6.39191 10.666 6.66487 10.666 6.99965C10.666 7.33443 10.9345 7.6074 11.2653 7.6074H12.066V8.39226C12.066 8.72704 12.3352 9 12.6653 9C12.9962 9 13.2646 8.72704 13.2646 8.39226V7.6074H14.0667C14.3968 7.6074 14.666 7.33443 14.666 6.99965C14.666 6.66487 14.3968 6.39191 14.0667 6.39191Z" fill="white"/>
<path d="M6.33301 10.0103C3.63582 10.0103 1.33301 10.4416 1.33301 12.1644C1.33301 13.8866 3.62181 14.3333 6.33301 14.3333C9.02952 14.3333 11.333 13.9021 11.333 12.1793C11.333 10.4564 9.04421 10.0103 6.33301 10.0103Z" fill="white"/>
<path opacity="0.4" d="M6.33284 8.36948C8.16922 8.36948 9.64126 6.87847 9.64126 5.01841C9.64126 3.15836 8.16922 1.66667 6.33284 1.66667C4.49645 1.66667 3.02441 3.15836 3.02441 5.01841C3.02441 6.87847 4.49645 8.36948 6.33284 8.36948Z" fill="white"/>
</svg>
