<svg width="16" height="16" viewBox="0 0 16 16" fill="none" xmlns="http://www.w3.org/2000/svg">
<path d="M10.7168 1.33333H12.9741C13.9089 1.33333 14.6664 2.09723 14.6664 3.03997V5.31635C14.6664 6.25909 13.9089 7.02299 12.9741 7.02299H10.7168C9.78192 7.02299 9.02441 6.25909 9.02441 5.31635V3.03997C9.02441 2.09723 9.78192 1.33333 10.7168 1.33333Z" fill="white"/>
<path fill-rule="evenodd" clip-rule="evenodd" d="M3.02536 1.33333H5.28267C6.21751 1.33333 6.97502 2.09723 6.97502 3.03997V5.31635C6.97502 6.25909 6.21751 7.02299 5.28267 7.02299H3.02536C2.09051 7.02299 1.33301 6.25909 1.33301 5.31635V3.03997C1.33301 2.09723 2.09051 1.33333 3.02536 1.33333ZM3.02536 8.97701H5.28267C6.21751 8.97701 6.97502 9.74091 6.97502 10.6836V12.96C6.97502 13.9021 6.21751 14.6667 5.28267 14.6667H3.02536C2.09051 14.6667 1.33301 13.9021 1.33301 12.96V10.6836C1.33301 9.74091 2.09051 8.97701 3.02536 8.97701ZM12.974 8.97701H10.7167C9.78184 8.97701 9.02433 9.74091 9.02433 10.6836V12.96C9.02433 13.9021 9.78184 14.6667 10.7167 14.6667H12.974C13.9088 14.6667 14.6663 13.9021 14.6663 12.96V10.6836C14.6663 9.74091 13.9088 8.97701 12.974 8.97701Z" fill="white"/>
</svg>
