<svg width="16" height="16" viewBox="0 0 16 16" fill="none" xmlns="http://www.w3.org/2000/svg">
<path opacity="0.4" d="M10.1728 3.33331H5.82708C4.25079 3.33331 3.33301 4.16398 3.33301 5.58731V10.408C3.33301 11.8546 4.25079 12.6666 5.82708 12.6666H10.1728C11.7745 12.6666 12.6663 11.8546 12.6663 10.408V5.58731C12.6663 4.16398 11.7745 3.33331 10.1728 3.33331Z" fill="white"/>
<path fill-rule="evenodd" clip-rule="evenodd" d="M10.0015 12.6686H5.99981C4.52822 12.6643 3.33634 11.4724 3.33203 10.0008V5.99914C3.33634 4.52755 4.52822 3.33567 5.99981 3.33136H10.0015C11.4731 3.33567 12.6649 4.52755 12.6693 5.99914V10.0008C12.6649 11.4724 11.4731 12.6643 10.0015 12.6686Z" stroke="white" stroke-width="1.5" stroke-linecap="round" stroke-linejoin="round"/>
<path d="M8.92429 3.33139V1.9975" stroke="white" stroke-width="1.5" stroke-linecap="round" stroke-linejoin="round"/>
<path d="M10.771 3.44555V1.9975" stroke="white" stroke-width="1.5" stroke-linecap="round" stroke-linejoin="round"/>
<path d="M5.22996 3.44531V1.9975" stroke="white" stroke-width="1.5" stroke-linecap="round" stroke-linejoin="round"/>
<path d="M7.07664 3.33139V1.9975" stroke="white" stroke-width="1.5" stroke-linecap="round" stroke-linejoin="round"/>
<path d="M8.92429 14.0025V12.6686" stroke="white" stroke-width="1.5" stroke-linecap="round" stroke-linejoin="round"/>
<path d="M10.771 14.0025V12.5543" stroke="white" stroke-width="1.5" stroke-linecap="round" stroke-linejoin="round"/>
<path d="M5.22996 14.0025V12.5543" stroke="white" stroke-width="1.5" stroke-linecap="round" stroke-linejoin="round"/>
<path d="M7.07664 14.0025V12.6686" stroke="white" stroke-width="1.5" stroke-linecap="round" stroke-linejoin="round"/>
<path d="M12.6689 8.92356H14.0028" stroke="white" stroke-width="1.5" stroke-linecap="round" stroke-linejoin="round"/>
<path d="M12.5547 10.7704H14.0027" stroke="white" stroke-width="1.5" stroke-linecap="round" stroke-linejoin="round"/>
<path d="M12.5547 5.22959H14.0025" stroke="white" stroke-width="1.5" stroke-linecap="round" stroke-linejoin="round"/>
<path d="M12.6689 7.07664H14.0028" stroke="white" stroke-width="1.5" stroke-linecap="round" stroke-linejoin="round"/>
<path d="M1.99805 8.92356H3.33194" stroke="white" stroke-width="1.5" stroke-linecap="round" stroke-linejoin="round"/>
<path d="M1.99805 10.7704H3.44627" stroke="white" stroke-width="1.5" stroke-linecap="round" stroke-linejoin="round"/>
<path d="M1.99805 5.22959H3.4462" stroke="white" stroke-width="1.5" stroke-linecap="round" stroke-linejoin="round"/>
<path d="M1.99805 7.07664H3.33194" stroke="white" stroke-width="1.5" stroke-linecap="round" stroke-linejoin="round"/>
<path fill-rule="evenodd" clip-rule="evenodd" d="M9.33467 10.6678H6.6669C5.9311 10.6656 5.33516 10.0697 5.33301 9.33388V6.6661C5.33516 5.93031 5.9311 5.33437 6.6669 5.33221H9.33467C10.0705 5.33437 10.6664 5.93031 10.6686 6.6661V9.33388C10.6664 10.0697 10.0705 10.6656 9.33467 10.6678Z" stroke="white" stroke-width="1.5" stroke-linecap="round" stroke-linejoin="round"/>
</svg>
