<svg width="16" height="16" viewBox="0 0 16 16" fill="none" xmlns="http://www.w3.org/2000/svg">
<path opacity="0.4" d="M9.16666 6.46867V5.12211C8.90232 5.12211 8.6831 4.90916 8.6831 4.65238V3.04903C8.6831 2.83545 8.50902 2.66698 8.28981 2.66698H3.86041C2.46776 2.66698 1.33301 3.76865 1.33301 5.12211V6.74362C1.33301 6.86951 1.38459 6.98851 1.47485 7.07619C1.56512 7.16325 1.68762 7.21335 1.81657 7.21335C2.30657 7.21335 2.68053 7.55156 2.68053 7.99624C2.68053 8.46033 2.30013 8.82986 1.82301 8.83549C1.55867 8.83549 1.33301 9.01712 1.33301 9.28017V10.8841C1.33301 12.237 2.46776 13.333 3.85396 13.333H8.28981C8.50902 13.333 8.6831 13.1633 8.6831 12.951V11.5975C8.6831 11.3351 8.90232 11.1278 9.16666 11.1278V9.91337C8.90232 9.91337 8.6831 9.6998 8.6831 9.44364V6.9384C8.6831 6.68162 8.90232 6.46867 9.16666 6.46867Z" fill="white"/>
<path d="M13.3192 7.99655C13.3192 8.46002 13.706 8.82954 14.1767 8.83581C14.441 8.83581 14.6667 9.01744 14.6667 9.27422V10.8838C14.6667 12.2373 13.5384 13.3333 12.1457 13.3333H10.0438C9.83108 13.3333 9.65055 13.1636 9.65055 12.9507V11.5978C9.65055 11.3348 9.43779 11.1281 9.16699 11.1281V9.91368C9.43779 9.91368 9.65055 9.70011 9.65055 9.44395V6.93872C9.65055 6.6813 9.43779 6.46899 9.16699 6.46899V5.12179C9.43779 5.12179 9.65055 4.90885 9.65055 4.65206V3.04934C9.65055 2.83577 9.83108 2.66666 10.0438 2.66666H12.1457C13.5384 2.66666 14.6667 3.7627 14.6667 5.11553V6.69383C14.6667 6.81909 14.6151 6.93872 14.5248 7.02577C14.4346 7.11346 14.3121 7.16356 14.1831 7.16356C13.706 7.16356 13.3192 7.53997 13.3192 7.99655Z" fill="white"/>
</svg>
