<svg width="16" height="16" viewBox="0 0 16 16" fill="none" xmlns="http://www.w3.org/2000/svg">
<path opacity="0.4" d="M8.01301 1.33334C4.13967 1.33334 1.33301 4.49334 1.33301 8.00001C1.33301 9.12001 1.65967 10.2733 2.23301 11.3267C2.33967 11.5 2.35301 11.72 2.27967 11.9267L1.83301 13.42C1.73301 13.78 2.03967 14.0467 2.37967 13.94L3.72634 13.54C4.09301 13.42 4.37967 13.5733 4.72034 13.78C5.69367 14.3533 6.90634 14.6467 7.99967 14.6467C11.3063 14.6467 14.6663 12.0933 14.6663 7.98001C14.6663 4.43334 11.7997 1.33334 8.01301 1.33334Z" fill="white"/>
<path fill-rule="evenodd" clip-rule="evenodd" d="M7.9865 8.86007C7.51317 8.85341 7.13317 8.47341 7.13317 8.00007C7.13317 7.53341 7.51984 7.14674 7.9865 7.15341C8.45984 7.15341 8.83984 7.53341 8.83984 8.00674C8.83984 8.47341 8.45984 8.86007 7.9865 8.86007ZM4.9129 8.86011C4.44624 8.86011 4.05957 8.47345 4.05957 8.00678C4.05957 7.53345 4.43957 7.15345 4.9129 7.15345C5.38624 7.15345 5.76624 7.53345 5.76624 8.00678C5.76624 8.47345 5.38624 8.85345 4.9129 8.86011ZM10.2064 8.00674C10.2064 8.47341 10.5864 8.86007 11.0597 8.86007C11.533 8.86007 11.913 8.47341 11.913 8.00674C11.913 7.53341 11.533 7.15341 11.0597 7.15341C10.5864 7.15341 10.2064 7.53341 10.2064 8.00674Z" fill="white"/>
</svg>
