<svg width="16" height="16" viewBox="0 0 16 16" fill="none" xmlns="http://www.w3.org/2000/svg">
<path opacity="0.4" d="M8.65054 2.07576L10.1349 5.05861C10.2442 5.27472 10.4529 5.4248 10.6936 5.45815L14.0277 5.94373C14.2224 5.97108 14.3991 6.0738 14.5185 6.23054C14.6365 6.38529 14.6872 6.58139 14.6585 6.77415C14.6352 6.93423 14.5598 7.08231 14.4445 7.1957L12.0286 9.53756C11.8519 9.70097 11.7719 9.9431 11.8146 10.1799L12.4093 13.4722C12.4727 13.8698 12.2093 14.2446 11.8146 14.32C11.6519 14.346 11.4852 14.3187 11.3385 14.2439L8.36448 12.6945C8.14377 12.5831 7.88304 12.5831 7.66233 12.6945L4.68836 14.2439C4.32295 14.438 3.87018 14.306 3.66681 13.9458C3.59146 13.8024 3.56478 13.639 3.58946 13.4796L4.18425 10.1866C4.22693 9.95043 4.14624 9.70698 3.9702 9.54356L1.55435 7.20304C1.26696 6.92556 1.25829 6.46866 1.53501 6.18118C1.54102 6.17518 1.54768 6.16851 1.55435 6.16184C1.66904 6.04511 1.81974 5.97108 1.98244 5.95173L5.31649 5.46549C5.55654 5.43147 5.76526 5.28273 5.87528 5.06528L7.30625 2.07576C7.43361 1.81963 7.69767 1.66022 7.9844 1.66689H8.07375C8.32247 1.6969 8.53919 1.85098 8.65054 2.07576Z" fill="white"/>
<path d="M7.99435 12.6114C7.86521 12.6154 7.73941 12.6501 7.62625 12.7122L4.66682 14.2581C4.30471 14.4309 3.87138 14.2968 3.66836 13.9505C3.59315 13.8091 3.56586 13.6469 3.59115 13.4881L4.18224 10.2021C4.22217 9.96326 4.1423 9.72039 3.96857 9.55226L1.55163 7.21234C1.26474 6.93144 1.25942 6.4704 1.54032 6.18283C1.54431 6.17882 1.54764 6.17549 1.55163 6.17215C1.66612 6.05873 1.81389 5.984 1.97298 5.96064L5.30983 5.46958C5.55146 5.43888 5.76113 5.28809 5.86763 5.06925L7.31806 2.0421C7.45585 1.7979 7.72011 1.65245 7.99967 1.66779C7.99435 1.86595 7.99435 12.4767 7.99435 12.6114Z" fill="white"/>
</svg>
