<svg width="16" height="16" viewBox="0 0 16 16" fill="none" xmlns="http://www.w3.org/2000/svg">
<path fill-rule="evenodd" clip-rule="evenodd" d="M8.47608 2.29389L10.0201 5.39989C10.0974 5.55655 10.2467 5.66589 10.4201 5.69122L13.8767 6.19055C14.0167 6.20922 14.1427 6.28255 14.2287 6.39455C14.3901 6.60455 14.3654 6.90189 14.1721 7.08255L11.6667 9.50522C11.5394 9.62522 11.4827 9.80122 11.5161 9.97255L12.1161 13.3912C12.1581 13.6746 11.9647 13.9399 11.6814 13.9859C11.5641 14.0039 11.4441 13.9852 11.3374 13.9326L8.25874 12.3186C8.10408 12.2346 7.91874 12.2346 7.76408 12.3186L4.66274 13.9412C4.40341 14.0732 4.08608 13.9752 3.94474 13.7212C3.89074 13.6186 3.87208 13.5019 3.89074 13.3879L4.49074 9.96922C4.52074 9.79855 4.46408 9.62322 4.34008 9.50255L1.82141 7.08055C1.61608 6.87655 1.61474 6.54455 1.81941 6.33922C1.82008 6.33855 1.82074 6.33722 1.82141 6.33655C1.90608 6.25989 2.01008 6.20855 2.12274 6.18855L5.58008 5.68922C5.75274 5.66189 5.90141 5.55389 5.98008 5.39722L7.52274 2.29389C7.58474 2.16789 7.69474 2.07122 7.82807 2.02722C7.96208 1.98255 8.10874 1.99322 8.23474 2.05655C8.33808 2.10789 8.42274 2.19122 8.47608 2.29389Z" fill="white" stroke="white" stroke-width="1.5" stroke-linecap="round" stroke-linejoin="round"/>
</svg>
