<svg width="24" height="24" viewBox="0 0 24 24" fill="none" xmlns="http://www.w3.org/2000/svg">
<path opacity="0.4" d="M2 12.0002C2 6.47621 6.477 2.00021 12 2.00021C17.523 2.00021 22 6.47621 22 12.0002C22 17.5222 17.523 22.0002 12 22.0002C6.477 22.0002 2 17.5222 2 12.0002Z" fill="black"/>
<path fill-rule="evenodd" clip-rule="evenodd" d="M11.1299 11.3693C11.1299 10.8873 11.5229 10.4943 12.0049 10.4943C12.4869 10.4943 12.8799 10.8873 12.8799 11.3693V15.7893C12.8799 16.2713 12.4869 16.6643 12.0049 16.6643C11.5229 16.6643 11.1299 16.2713 11.1299 15.7893V11.3693ZM12.8749 8.19651C12.8749 8.67851 12.4839 9.07151 12.0049 9.07151C11.5119 9.07151 11.1199 8.67851 11.1199 8.19651C11.1199 7.71451 11.5119 7.32151 11.9949 7.32151C12.4799 7.32151 12.8749 7.71451 12.8749 8.19651Z" fill="black"/>
</svg>
