<svg width="16" height="16" viewBox="0 0 16 16" fill="none" xmlns="http://www.w3.org/2000/svg">
<path opacity="0.4" fill-rule="evenodd" clip-rule="evenodd" d="M3.94043 13.7257C3.94043 13.1657 4.39376 12.7123 4.95376 12.7123C5.5071 12.7123 5.96043 13.1657 5.96043 13.7257C5.96043 14.279 5.5071 14.7323 4.95376 14.7323C4.39376 14.7323 3.94043 14.279 3.94043 13.7257ZM11.4404 13.7257C11.4404 13.1657 11.8938 12.7123 12.4538 12.7123C13.0071 12.7123 13.4604 13.1657 13.4604 13.7257C13.4604 14.279 13.0071 14.7323 12.4538 14.7323C11.8938 14.7323 11.4404 14.279 11.4404 13.7257Z" fill="white"/>
<path fill-rule="evenodd" clip-rule="evenodd" d="M13.4602 4.23266C13.8668 4.23266 14.1335 4.37266 14.4002 4.67933C14.6668 4.986 14.7135 5.426 14.6535 5.82533L14.0202 10.1987C13.9002 11.0393 13.1802 11.6587 12.3335 11.6587H5.06017C4.1735 11.6587 3.44017 10.9787 3.36684 10.0993L2.7535 2.832L1.74684 2.65866C1.48017 2.612 1.2935 2.352 1.34017 2.08533C1.38684 1.812 1.64684 1.632 1.92017 1.672L3.51017 1.912C3.73684 1.95266 3.9035 2.13866 3.9235 2.36533L4.05017 3.85866C4.07017 4.07266 4.2435 4.23266 4.45684 4.23266H13.4602ZM9.42017 7.69866H11.2668C11.5468 7.69866 11.7668 7.472 11.7668 7.19866C11.7668 6.91866 11.5468 6.69866 11.2668 6.69866H9.42017C9.14017 6.69866 8.92017 6.91866 8.92017 7.19866C8.92017 7.472 9.14017 7.69866 9.42017 7.69866Z" fill="white"/>
</svg>
