<svg width="16" height="16" viewBox="0 0 16 16" fill="none" xmlns="http://www.w3.org/2000/svg">
<path opacity="0.4" d="M11.2559 3.4099H9.29385C8.80506 3.41313 8.341 3.1957 8.03126 2.81834L7.38514 1.92508C7.08059 1.54441 6.61654 1.32596 6.12848 1.33352H4.74141C2.2518 1.33352 1.33301 2.79468 1.33301 5.27922V7.9649C1.32992 8.26026 14.6634 8.25988 14.6643 7.9649V7.18405C14.6761 4.6995 13.7811 3.4099 11.2559 3.4099Z" fill="white"/>
<path fill-rule="evenodd" clip-rule="evenodd" d="M13.8878 4.36231C14.1011 4.61169 14.2659 4.89857 14.3738 5.20824C14.5862 5.84469 14.6845 6.51353 14.6643 7.18405V10.6861C14.6634 10.9811 14.6416 11.2756 14.5991 11.5675C14.518 12.0827 14.3368 12.577 14.0656 13.0227C13.9409 13.238 13.7896 13.4368 13.6151 13.6143C12.8252 14.3392 11.7763 14.7166 10.7046 14.6614H5.28675C4.21334 14.7162 3.16275 14.339 2.37035 13.6143C2.19794 13.4364 2.04859 13.2377 1.92577 13.0227C1.65617 12.5773 1.4788 12.0825 1.40414 11.5675C1.35667 11.2761 1.33288 10.9813 1.33301 10.6861V7.18405C1.33289 6.89157 1.34872 6.5993 1.38043 6.30854C1.3871 6.25753 1.3971 6.20734 1.407 6.15768C1.4235 6.07489 1.43971 5.99354 1.43971 5.91219C1.49988 5.56131 1.60965 5.22073 1.76573 4.90063C2.22808 3.91272 3.17651 3.4099 4.72955 3.4099H11.25C12.1198 3.34262 12.9832 3.60449 13.6684 4.14343C13.7474 4.21035 13.8207 4.28355 13.8878 4.36231ZM4.64656 10.3607H11.3567H11.3685C11.5157 10.3671 11.6594 10.3144 11.7675 10.2144C11.8755 10.1144 11.9389 9.97532 11.9435 9.82832C11.9518 9.69911 11.9093 9.57176 11.8249 9.47338C11.7279 9.34118 11.5742 9.26228 11.41 9.26042H4.64656C4.34211 9.26042 4.09529 9.50673 4.09529 9.81057C4.09529 10.1144 4.34211 10.3607 4.64656 10.3607Z" fill="white"/>
</svg>
