<svg width="16" height="16" viewBox="0 0 16 16" fill="none" xmlns="http://www.w3.org/2000/svg">
<path d="M7.96621 9.69324C5.66622 9.69324 3.72559 10.0691 3.72559 11.5196C3.72559 12.9707 5.67876 13.3333 7.96621 13.3333C10.2662 13.3333 12.2068 12.9575 12.2068 11.507C12.2068 10.0559 10.2537 9.69324 7.96621 9.69324" fill="white"/>
<path opacity="0.4" d="M7.9661 8.31131C9.52351 8.31131 10.7723 7.05534 10.7723 5.48897C10.7723 3.922 9.52351 2.66663 7.9661 2.66663C6.4087 2.66663 5.15991 3.922 5.15991 5.48897C5.15991 7.05534 6.4087 8.31131 7.9661 8.31131" fill="white"/>
<path opacity="0.4" d="M14.0588 6.14615C14.4617 4.56117 13.2804 3.1377 11.7761 3.1377C11.6126 3.1377 11.4562 3.15571 11.3033 3.18633C11.283 3.19113 11.2604 3.20133 11.2484 3.21935C11.2347 3.24216 11.2448 3.27278 11.2598 3.29259C11.7116 3.93018 11.9713 4.70646 11.9713 5.53978C11.9713 6.33827 11.7331 7.08273 11.3153 7.70051C11.2723 7.76415 11.3105 7.85001 11.3863 7.86321C11.4914 7.88182 11.5988 7.89143 11.7087 7.89443C12.804 7.92325 13.7872 7.21421 14.0588 6.14615" fill="white"/>
<path d="M15.2063 9.87793C15.0057 9.44807 14.5216 9.15328 13.7856 9.00859C13.4381 8.92334 12.498 8.80327 11.6235 8.81948C11.6103 8.82128 11.6032 8.83028 11.602 8.83629C11.6002 8.84469 11.6038 8.8591 11.6211 8.86811C12.0252 9.06923 13.5874 9.94397 13.391 11.7889C13.3826 11.8688 13.4465 11.9378 13.5259 11.9258C13.9103 11.8706 14.8994 11.6568 15.2063 10.991C15.3758 10.6392 15.3758 10.2303 15.2063 9.87793" fill="white"/>
<path opacity="0.4" d="M4.69655 3.18645C4.54434 3.15523 4.38734 3.13782 4.22378 3.13782C2.71951 3.13782 1.53817 4.5613 1.9417 6.14628C2.21271 7.21433 3.19586 7.92337 4.29124 7.89455C4.40107 7.89155 4.50912 7.88135 4.61358 7.86334C4.68939 7.85013 4.7276 7.76427 4.68462 7.70064C4.26676 7.08225 4.02858 6.33839 4.02858 5.5399C4.02858 4.70599 4.28885 3.92971 4.74073 3.29271C4.75505 3.2729 4.7658 3.24228 4.75147 3.21947C4.73953 3.20086 4.71745 3.19125 4.69655 3.18645" fill="white"/>
<path d="M2.21445 9.00834C1.47843 9.15303 0.994913 9.44782 0.794343 9.87768C0.624216 10.2301 0.624216 10.639 0.794343 10.9914C1.10117 11.6566 2.09029 11.8709 2.47472 11.9255C2.55411 11.9376 2.61738 11.8691 2.60903 11.7887C2.41263 9.94432 3.97481 9.06958 4.37954 8.86846C4.39625 8.85885 4.39983 8.84504 4.39804 8.83604C4.39685 8.83003 4.39028 8.82103 4.37715 8.81983C3.50204 8.80302 2.56246 8.92309 2.21445 9.00834" fill="white"/>
</svg>
