<svg width="20" height="22" viewBox="0 0 20 22" fill="none" xmlns="http://www.w3.org/2000/svg">
<path d="M7.96621 15.6933C5.66622 15.6933 3.72559 16.0691 3.72559 17.5196C3.72559 18.9707 5.67876 19.3333 7.96621 19.3333C10.2662 19.3333 12.2068 18.9575 12.2068 17.507C12.2068 16.0559 10.2537 15.6933 7.96621 15.6933Z" fill="white"/>
<path opacity="0.4" d="M7.96635 14.3114C9.52375 14.3114 10.7725 13.0554 10.7725 11.489C10.7725 9.92205 9.52375 8.66667 7.96635 8.66667C6.40894 8.66667 5.16016 9.92205 5.16016 11.489C5.16016 13.0554 6.40894 14.3114 7.96635 14.3114Z" fill="white"/>
<path opacity="0.4" d="M14.059 12.1462C14.462 10.5612 13.2806 9.13773 11.7764 9.13773C11.6128 9.13773 11.4564 9.15574 11.3036 9.18636C11.2833 9.19116 11.2606 9.20137 11.2487 9.21938C11.2349 9.24219 11.2451 9.27281 11.26 9.29262C11.7119 9.93022 11.9716 10.7065 11.9716 11.5398C11.9716 12.3383 11.7334 13.0828 11.3155 13.7005C11.2725 13.7642 11.3107 13.85 11.3866 13.8632C11.4916 13.8819 11.5991 13.8915 11.7089 13.8945C12.8043 13.9233 13.7874 13.2142 14.059 12.1462Z" fill="white"/>
<path d="M15.2063 15.878C15.0057 15.4481 14.5216 15.1533 13.7856 15.0086C13.4381 14.9234 12.498 14.8033 11.6235 14.8195C11.6103 14.8213 11.6032 14.8303 11.602 14.8363C11.6002 14.8447 11.6038 14.8591 11.6211 14.8681C12.0252 15.0693 13.5874 15.944 13.391 17.7889C13.3826 17.8688 13.4465 17.9378 13.5259 17.9258C13.9103 17.8706 14.8994 17.6569 15.2063 16.991C15.3758 16.6392 15.3758 16.2304 15.2063 15.878Z" fill="white"/>
<path opacity="0.4" d="M4.69704 9.18654C4.54482 9.15532 4.38783 9.13791 4.22427 9.13791C2.71999 9.13791 1.53866 10.5614 1.94219 12.1464C2.2132 13.2144 3.19635 13.9235 4.29172 13.8946C4.40156 13.8916 4.50961 13.8814 4.61407 13.8634C4.68988 13.8502 4.72808 13.7644 4.6851 13.7007C4.26725 13.0823 4.02907 12.3385 4.02907 11.54C4.02907 10.7061 4.28934 9.9298 4.74122 9.2928C4.75554 9.27299 4.76629 9.24237 4.75196 9.21956C4.74002 9.20095 4.71794 9.19134 4.69704 9.18654Z" fill="white"/>
<path d="M2.2147 15.0085C1.47867 15.1531 0.995157 15.4479 0.794587 15.8778C0.624461 16.2302 0.624461 16.6391 0.794587 16.9915C1.10141 17.6567 2.09053 17.871 2.47496 17.9257C2.55435 17.9377 2.61763 17.8692 2.60927 17.7888C2.41288 15.9444 3.97506 15.0697 4.37978 14.8686C4.39649 14.859 4.40008 14.8452 4.39828 14.8361C4.39709 14.8301 4.39052 14.8211 4.37739 14.8199C3.50228 14.8031 2.56271 14.9232 2.2147 15.0085Z" fill="white"/>
<circle cx="14" cy="6" r="6" fill="#101314"/>
<circle cx="14" cy="6" r="3" fill="#FFB60E"/>
</svg>
