<svg width="25" height="25" viewBox="0 0 25 25" fill="none" xmlns="http://www.w3.org/2000/svg">
<path d="M21.4274 3.5783C20.9274 3.0673 20.1874 2.8783 19.4974 3.0783L3.40742 7.7273C2.67942 7.9293 2.16342 8.5063 2.02442 9.2383C1.88242 9.9843 2.37842 10.9323 3.02642 11.3283L8.05742 14.4003C8.57342 14.7163 9.23942 14.6373 9.66642 14.2093L15.4274 8.4483C15.7174 8.1473 16.1974 8.1473 16.4874 8.4483C16.7774 8.7373 16.7774 9.2083 16.4874 9.5083L10.7164 15.2693C10.2884 15.6973 10.2084 16.3613 10.5234 16.8783L13.5974 21.9283C13.9574 22.5273 14.5774 22.8683 15.2574 22.8683C15.3374 22.8683 15.4274 22.8683 15.5074 22.8573C16.2874 22.7583 16.9074 22.2273 17.1374 21.4773L21.9074 5.5083C22.1174 4.8283 21.9274 4.0883 21.4274 3.5783Z" fill="black"/>
<path opacity="0.4" fill-rule="evenodd" clip-rule="evenodd" d="M3.01049 17.8078C2.81849 17.8078 2.62649 17.7348 2.48049 17.5878C2.18749 17.2948 2.18749 16.8208 2.48049 16.5278L3.84549 15.1618C4.13849 14.8698 4.61349 14.8698 4.90649 15.1618C5.19849 15.4548 5.19849 15.9298 4.90649 16.2228L3.54049 17.5878C3.39449 17.7348 3.20249 17.8078 3.01049 17.8078ZM6.77169 19.0002C6.57969 19.0002 6.38769 18.9272 6.24169 18.7802C5.94869 18.4872 5.94869 18.0132 6.24169 17.7202L7.60669 16.3542C7.89969 16.0622 8.37469 16.0622 8.66769 16.3542C8.95969 16.6472 8.95969 17.1222 8.66769 17.4152L7.30169 18.7802C7.15569 18.9272 6.96369 19.0002 6.77169 19.0002ZM7.02539 22.5682C7.17139 22.7152 7.36339 22.7882 7.55539 22.7882C7.74739 22.7882 7.93939 22.7152 8.08539 22.5682L9.45139 21.2032C9.74339 20.9102 9.74339 20.4352 9.45139 20.1422C9.15839 19.8502 8.68339 19.8502 8.39039 20.1422L7.02539 21.5082C6.73239 21.8012 6.73239 22.2752 7.02539 22.5682Z" fill="black"/>
<circle cx="19" cy="6" r="6" fill="#101314"/>
<circle cx="19" cy="6" r="3" fill="#FFB60E"/>
</svg>
