<svg width="16" height="16" viewBox="0 0 16 16" fill="none" xmlns="http://www.w3.org/2000/svg">
<path d="M14.2846 1.71886C13.9513 1.37819 13.458 1.25219 12.998 1.38553L2.27129 4.48486C1.78595 4.61953 1.44195 5.00419 1.34929 5.49219C1.25462 5.98953 1.58529 6.62153 2.01729 6.88553L5.37129 8.93353C5.71529 9.14419 6.15929 9.09153 6.44395 8.80619L10.2846 4.96553C10.478 4.76486 10.798 4.76486 10.9913 4.96553C11.1846 5.15819 11.1846 5.47219 10.9913 5.67219L7.14395 9.51286C6.85862 9.79819 6.80529 10.2409 7.01529 10.5855L9.06462 13.9522C9.30462 14.3515 9.71795 14.5789 10.1713 14.5789C10.2246 14.5789 10.2846 14.5789 10.338 14.5715C10.858 14.5055 11.2713 14.1515 11.4246 13.6515L14.6046 3.00553C14.7446 2.55219 14.618 2.05886 14.2846 1.71886Z" fill="white"/>
<path opacity="0.4" fill-rule="evenodd" clip-rule="evenodd" d="M2.00667 11.2052C1.87867 11.2052 1.75067 11.1565 1.65334 11.0585C1.458 10.8632 1.458 10.5472 1.65334 10.3519L2.56334 9.4412C2.75867 9.24653 3.07534 9.24653 3.27067 9.4412C3.46534 9.63653 3.46534 9.9532 3.27067 10.1485L2.36 11.0585C2.26267 11.1565 2.13467 11.2052 2.00667 11.2052ZM4.51414 12.0001C4.38614 12.0001 4.25814 11.9515 4.1608 11.8535C3.96547 11.6581 3.96547 11.3421 4.1608 11.1468L5.0708 10.2361C5.26614 10.0415 5.5828 10.0415 5.77814 10.2361C5.9728 10.4315 5.9728 10.7481 5.77814 10.9435L4.86747 11.8535C4.77014 11.9515 4.64214 12.0001 4.51414 12.0001ZM4.68327 14.3788C4.7806 14.4768 4.9086 14.5255 5.0366 14.5255C5.1646 14.5255 5.2926 14.4768 5.38994 14.3788L6.3006 13.4688C6.49527 13.2735 6.49527 12.9568 6.3006 12.7615C6.10527 12.5668 5.7886 12.5668 5.59327 12.7615L4.68327 13.6721C4.48794 13.8675 4.48794 14.1835 4.68327 14.3788Z" fill="white"/>
</svg>
