<svg width="16" height="16" viewBox="0 0 16 16" fill="none" xmlns="http://www.w3.org/2000/svg">
<path opacity="0.4" d="M3.14834 14.1115C3.13968 14.1115 3.13168 14.1115 3.12234 14.1109C2.91234 14.1002 2.70634 14.0549 2.51034 13.9755C1.54568 13.5835 1.08034 12.4815 1.47168 11.5175L6.35234 2.96686C6.52034 2.66286 6.77501 2.40819 7.08568 2.23619C7.99568 1.73219 9.14634 2.06353 9.64968 2.97286L14.4983 11.4582C14.6063 11.7122 14.6523 11.9189 14.6637 12.1295C14.6897 12.6335 14.5177 13.1169 14.1803 13.4909C13.843 13.8649 13.3797 14.0855 12.8763 14.1109L3.19634 14.1115H3.14834Z" fill="white"/>
<path fill-rule="evenodd" clip-rule="evenodd" d="M7.41602 6.68053C7.41602 6.3592 7.67802 6.0972 7.99935 6.0972C8.32068 6.0972 8.58268 6.3592 8.58268 6.68053V8.56586C8.58268 8.88786 8.32068 9.1492 7.99935 9.1492C7.67802 9.1492 7.41602 8.88786 7.41602 8.56586V6.68053ZM7.41602 10.8466C7.41602 10.5233 7.67802 10.2599 7.99935 10.2599C8.32068 10.2599 8.58268 10.5199 8.58268 10.8393C8.58268 11.1679 8.32068 11.4299 7.99935 11.4299C7.67802 11.4299 7.41602 11.1679 7.41602 10.8466Z" fill="white"/>
</svg>
