<svg width="16" height="16" viewBox="0 0 16 16" fill="none" xmlns="http://www.w3.org/2000/svg">
<path opacity="0.4" d="M14.6663 7.99992C14.6663 11.6819 11.6817 14.6666 7.99967 14.6666C4.31767 14.6666 1.33301 11.6819 1.33301 7.99992C1.33301 4.31859 4.31767 1.33325 7.99967 1.33325C11.6817 1.33325 14.6663 4.31859 14.6663 7.99992Z" fill="white"/>
<path d="M10.5731 5.80326L9.49314 9.21659C9.45314 9.35659 9.33981 9.46992 9.19981 9.51059L5.79981 10.5766C5.57314 10.6506 5.35314 10.4299 5.42648 10.2033L6.49314 6.78326C6.53314 6.64326 6.64648 6.53659 6.78648 6.48992L10.1998 5.42326C10.4331 5.34992 10.6465 5.56992 10.5731 5.80326Z" fill="white"/>
</svg>
