<svg width="16" height="16" viewBox="0 0 16 16" fill="none" xmlns="http://www.w3.org/2000/svg">
<path opacity="0.4" d="M1.33366 8.00014C1.33366 4.31748 4.31833 1.33348 8.00033 1.33348C11.6823 1.33348 14.667 4.31748 14.667 8.00014C14.667 11.6815 11.6823 14.6668 8.00033 14.6668C4.31833 14.6668 1.33366 11.6815 1.33366 8.00014Z" fill="white"/>
<path d="M10.148 6.57397L7.55533 9.16664L6 7.61131" stroke="white" stroke-width="1.5" stroke-linecap="round" stroke-linejoin="round"/>
<path d="M8.72656 3.66666L9.72656 2.66666L8.72656 1.66666" stroke="white" stroke-width="1.5" stroke-linecap="round" stroke-linejoin="round"/>
<path d="M7.27344 12.3333L6.27344 13.3333L7.27344 14.3333" stroke="white" stroke-width="1.5" stroke-linecap="round" stroke-linejoin="round"/>
<path d="M11.7832 4.24731C12.7398 5.21131 13.3338 6.53465 13.3338 7.99998C13.3338 10.9453 10.9458 13.3333 8.0005 13.3333C7.4765 13.3333 6.97183 13.2546 6.49316 13.114" stroke="white" stroke-width="1.5" stroke-linecap="round" stroke-linejoin="round"/>
<path d="M4.16966 11.708C3.24033 10.748 2.66699 9.44132 2.66699 7.99999C2.66699 5.05466 5.05499 2.66666 8.00033 2.66666C8.52433 2.66666 9.02899 2.74532 9.50766 2.88599" stroke="white" stroke-width="1.5" stroke-linecap="round" stroke-linejoin="round"/>
</svg>
