<svg width="20" height="20" viewBox="0 0 20 20" fill="none" xmlns="http://www.w3.org/2000/svg">
<path opacity="0.4" d="M17.7084 11.2303C17.0242 11.2303 16.4676 10.6787 16.4676 10.0008C16.4676 9.32208 17.0242 8.7705 17.7084 8.7705C17.8742 8.7705 18.0334 8.70527 18.1501 8.58967C18.2676 8.47325 18.3334 8.31553 18.3334 8.15122L18.3326 5.92013C18.3326 4.03418 16.7834 2.5 14.8801 2.5H5.12008C3.21675 2.5 1.66758 4.03418 1.66758 5.92013L1.66675 8.22305C1.66675 8.38737 1.73258 8.54508 1.85008 8.66151C1.96675 8.77711 2.12591 8.84234 2.29175 8.84234C2.99925 8.84234 3.53258 9.34025 3.53258 10.0008C3.53258 10.6787 2.97591 11.2303 2.29175 11.2303C1.94675 11.2303 1.66675 11.5078 1.66675 11.8496V14.079C1.66675 15.965 3.21508 17.5 5.11925 17.5H14.8809C16.7851 17.5 18.3334 15.965 18.3334 14.079V11.8496C18.3334 11.5078 18.0534 11.2303 17.7084 11.2303Z" fill="white"/>
<path d="M12.8589 9.6572L11.8764 10.6139L12.1089 11.9664C12.1489 12.2005 12.0548 12.4314 11.8623 12.5697C11.6714 12.7097 11.4223 12.7272 11.2123 12.6155L9.99977 11.978L8.78477 12.6164C8.69477 12.6639 8.59644 12.6889 8.49894 12.6889C8.37144 12.6889 8.24561 12.6489 8.13727 12.5705C7.94561 12.4314 7.85144 12.2005 7.89144 11.9664L8.12311 10.6139L7.14061 9.6572C6.97061 9.4922 6.91144 9.2497 6.98477 9.02386C7.05894 8.79886 7.25061 8.63886 7.48477 8.60553L8.83977 8.40803L9.44727 7.1772C9.55311 6.96553 9.76477 6.83386 9.99977 6.83386H10.0014C10.2373 6.8347 10.4489 6.96636 10.5531 7.17803L11.1606 8.40803L12.5181 8.60636C12.7498 8.63886 12.9414 8.79886 13.0148 9.02386C13.0889 9.2497 13.0298 9.4922 12.8589 9.6572Z" fill="white"/>
</svg>
